<svg width="650" height="650" viewBox="0 0 650 650" fill="none" xmlns="http://www.w3.org/2000/svg">
<rect width="650" height="650" fill="white"/>
<g clip-path="url(#clip0_441_5489)">
<rect width="500" height="500" transform="translate(75 75)" fill="white"/>
<path d="M455.211 254.41C513.573 254.41 560.884 218.763 560.884 174.79C560.884 130.817 513.573 95.1699 455.211 95.1699C396.85 95.1699 349.538 130.817 349.538 174.79C349.538 218.763 396.85 254.41 455.211 254.41Z" stroke="#8FD5A6" stroke-width="1.0046" stroke-miterlimit="10"/>
<g opacity="0.8">
<path d="M455.183 254.41C509.909 254.41 554.273 218.763 554.273 174.79C554.273 130.817 509.909 95.1699 455.183 95.1699C400.457 95.1699 356.093 130.817 356.093 174.79C356.093 218.763 400.457 254.41 455.183 254.41Z" fill="#8FD5A6"/>
<path d="M404.656 195.934C397.424 217.697 376.05 233.988 353.148 235.191C366.365 240.715 382.28 239.246 394.263 231.397C398.371 228.706 401.997 225.35 405.532 221.941C410.788 216.872 416.019 211.462 418.78 204.702" fill="#8FD5A6"/>
</g>
<path d="M401.231 121.843H411.417V155.781H403.944V129.01H401.231V121.843ZM432.34 155.832C430.395 155.832 428.552 155.491 426.812 154.808C425.106 154.126 423.587 153.085 422.256 151.686C420.959 150.252 419.936 148.461 419.185 146.311C418.434 144.127 418.059 141.568 418.059 138.633C418.059 135.357 418.417 132.627 419.134 130.443C419.85 128.225 420.84 126.45 422.103 125.119C423.399 123.788 424.918 122.85 426.658 122.304C428.399 121.724 430.293 121.434 432.34 121.434C434.285 121.434 436.111 121.775 437.817 122.458C439.558 123.14 441.076 124.198 442.373 125.631C443.704 127.03 444.745 128.822 445.495 131.006C446.246 133.156 446.622 135.698 446.622 138.633C446.622 141.67 446.246 144.281 445.495 146.465C444.745 148.649 443.704 150.44 442.373 151.839C441.042 153.204 439.524 154.211 437.817 154.859C436.111 155.508 434.285 155.832 432.34 155.832ZM432.289 148.717C433.995 148.717 435.326 148.273 436.282 147.386C437.237 146.465 437.903 145.219 438.278 143.649C438.687 142.079 438.892 140.339 438.892 138.428C438.892 136.551 438.687 134.879 438.278 133.412C437.903 131.944 437.237 130.784 436.282 129.931C435.326 129.044 433.995 128.6 432.289 128.6C430.617 128.6 429.303 129.044 428.348 129.931C427.392 130.818 426.727 132.013 426.351 133.514C425.976 135.016 425.788 136.705 425.788 138.582C425.788 140.459 425.976 142.165 426.351 143.7C426.727 145.236 427.392 146.465 428.348 147.386C429.303 148.273 430.617 148.717 432.289 148.717ZM464.483 155.832C462.537 155.832 460.695 155.491 458.954 154.808C457.248 154.126 455.729 153.085 454.399 151.686C453.102 150.252 452.078 148.461 451.327 146.311C450.576 144.127 450.201 141.568 450.201 138.633C450.201 135.357 450.559 132.627 451.276 130.443C451.993 128.225 452.982 126.45 454.245 125.119C455.542 123.788 457.06 122.85 458.801 122.304C460.541 121.724 462.435 121.434 464.483 121.434C466.428 121.434 468.253 121.775 469.96 122.458C471.7 123.14 473.219 124.198 474.515 125.631C475.846 127.03 476.887 128.822 477.638 131.006C478.389 133.156 478.764 135.698 478.764 138.633C478.764 141.67 478.389 144.281 477.638 146.465C476.887 148.649 475.846 150.44 474.515 151.839C473.184 153.204 471.666 154.211 469.96 154.859C468.253 155.508 466.428 155.832 464.483 155.832ZM464.431 148.717C466.138 148.717 467.468 148.273 468.424 147.386C469.379 146.465 470.045 145.219 470.42 143.649C470.83 142.079 471.035 140.339 471.035 138.428C471.035 136.551 470.83 134.879 470.42 133.412C470.045 131.944 469.379 130.784 468.424 129.931C467.468 129.044 466.138 128.6 464.431 128.6C462.759 128.6 461.445 129.044 460.49 129.931C459.534 130.818 458.869 132.013 458.494 133.514C458.118 135.016 457.93 136.705 457.93 138.582C457.93 140.459 458.118 142.165 458.494 143.7C458.869 145.236 459.534 146.465 460.49 147.386C461.445 148.273 462.759 148.717 464.431 148.717ZM490.585 140.732C488.708 140.732 487.155 140.305 485.927 139.452C484.698 138.599 483.794 137.438 483.214 135.971C482.634 134.504 482.343 132.849 482.343 131.006C482.343 129.163 482.634 127.525 483.214 126.092C483.794 124.624 484.698 123.464 485.927 122.611C487.155 121.758 488.708 121.331 490.585 121.331C492.462 121.331 493.997 121.758 495.192 122.611C496.42 123.464 497.324 124.624 497.905 126.092C498.519 127.525 498.826 129.163 498.826 131.006C498.826 132.849 498.519 134.504 497.905 135.971C497.324 137.438 496.42 138.599 495.192 139.452C493.997 140.305 492.462 140.732 490.585 140.732ZM488.588 131.006C488.588 132.405 488.725 133.548 488.998 134.435C489.271 135.289 489.8 135.715 490.585 135.715C491.37 135.715 491.881 135.289 492.12 134.435C492.393 133.548 492.53 132.405 492.53 131.006C492.53 129.402 492.393 128.242 492.12 127.525C491.881 126.774 491.37 126.399 490.585 126.399C489.8 126.399 489.271 126.774 488.998 127.525C488.725 128.242 488.588 129.402 488.588 131.006ZM511.981 157.214C510.104 157.214 508.552 156.787 507.323 155.934C506.095 155.081 505.19 153.921 504.61 152.454C504.03 150.986 503.74 149.331 503.74 147.488C503.74 145.646 504.03 144.008 504.61 142.574C505.19 141.107 506.095 139.947 507.323 139.094C508.552 138.24 510.104 137.814 511.981 137.814C513.858 137.814 515.394 138.24 516.588 139.094C517.817 139.947 518.721 141.107 519.301 142.574C519.915 144.008 520.222 145.646 520.222 147.488C520.222 149.331 519.915 150.986 519.301 152.454C518.721 153.921 517.817 155.081 516.588 155.934C515.394 156.787 513.858 157.214 511.981 157.214ZM509.985 147.488C509.985 148.887 510.121 150.031 510.394 150.918C510.667 151.771 511.196 152.198 511.981 152.198C512.766 152.198 513.278 151.771 513.517 150.918C513.79 150.031 513.926 148.887 513.926 147.488C513.926 145.884 513.79 144.724 513.517 144.008C513.278 143.257 512.766 142.881 511.981 142.881C511.196 142.881 510.667 143.257 510.394 144.008C510.121 144.724 509.985 145.884 509.985 147.488ZM517.817 121.331L492.939 155.883L485.927 155.781L510.701 121.331H517.817Z" fill="#0D5D56"/>
<path d="M406.327 175.171H417.349V176.285H412.395V192H411.234V176.285H406.327V175.171ZM422.111 192.189C421.147 192.189 420.293 191.976 419.551 191.55C418.808 191.123 418.223 190.546 417.797 189.819C417.386 189.077 417.181 188.247 417.181 187.33C417.181 186.43 417.402 185.608 417.844 184.865C418.287 184.123 418.879 183.53 419.622 183.088C420.38 182.645 421.218 182.424 422.134 182.424C423.241 182.424 424.165 182.748 424.908 183.396C425.666 184.044 426.211 184.889 426.543 185.932L418.437 189.061L418.105 188.255L425.524 185.363L425.287 185.695C425.018 185.063 424.607 184.518 424.054 184.06C423.517 183.601 422.853 183.372 422.063 183.372C421.352 183.372 420.712 183.546 420.143 183.894C419.575 184.241 419.116 184.707 418.769 185.292C418.437 185.877 418.271 186.54 418.271 187.283C418.271 187.978 418.429 188.626 418.745 189.227C419.077 189.827 419.535 190.309 420.12 190.673C420.704 191.036 421.376 191.218 422.134 191.218C422.64 191.218 423.122 191.123 423.58 190.933C424.054 190.744 424.473 190.499 424.836 190.198L425.405 191.004C424.963 191.352 424.449 191.636 423.865 191.858C423.296 192.079 422.711 192.189 422.111 192.189ZM430.603 182.732L430.722 185.576L430.58 185.221C430.785 184.652 431.109 184.162 431.552 183.751C431.994 183.341 432.484 183.024 433.021 182.803C433.574 182.582 434.104 182.471 434.609 182.471L434.562 183.562C433.851 183.562 433.203 183.72 432.618 184.036C432.049 184.352 431.591 184.778 431.243 185.316C430.912 185.837 430.746 186.43 430.746 187.093V192H429.632V182.732H430.603ZM442.853 192.189C441.968 192.189 441.138 191.96 440.364 191.502C439.59 191.028 439.021 190.42 438.658 189.677L438.847 189.274V196.456H437.733V182.661H438.729L438.847 185.695L438.634 185.008C439.045 184.265 439.645 183.657 440.435 183.183C441.225 182.693 442.086 182.448 443.019 182.448C443.904 182.448 444.702 182.661 445.413 183.088C446.124 183.514 446.685 184.099 447.096 184.842C447.522 185.569 447.736 186.406 447.736 187.354C447.736 188.286 447.514 189.124 447.072 189.867C446.645 190.594 446.061 191.162 445.318 191.573C444.591 191.984 443.769 192.189 442.853 192.189ZM442.663 191.265C443.39 191.265 444.046 191.091 444.631 190.744C445.231 190.396 445.705 189.93 446.053 189.345C446.416 188.745 446.598 188.081 446.598 187.354C446.598 186.611 446.424 185.948 446.076 185.363C445.729 184.763 445.263 184.289 444.678 183.941C444.109 183.593 443.461 183.42 442.734 183.42C442.039 183.42 441.407 183.578 440.838 183.894C440.269 184.21 439.811 184.636 439.463 185.174C439.116 185.711 438.91 186.319 438.847 186.999V187.757C438.895 188.405 439.092 188.998 439.44 189.535C439.803 190.072 440.261 190.499 440.814 190.815C441.383 191.115 442 191.265 442.663 191.265ZM455.072 192.189C454.108 192.189 453.255 191.976 452.512 191.55C451.77 191.123 451.185 190.546 450.758 189.819C450.347 189.077 450.142 188.247 450.142 187.33C450.142 186.43 450.363 185.608 450.806 184.865C451.248 184.123 451.841 183.53 452.583 183.088C453.342 182.645 454.179 182.424 455.096 182.424C456.202 182.424 457.126 182.748 457.869 183.396C458.628 184.044 459.173 184.889 459.504 185.932L451.398 189.061L451.066 188.255L458.485 185.363L458.248 185.695C457.98 185.063 457.569 184.518 457.016 184.06C456.478 183.601 455.815 183.372 455.025 183.372C454.314 183.372 453.674 183.546 453.105 183.894C452.536 184.241 452.078 184.707 451.73 185.292C451.398 185.877 451.232 186.54 451.232 187.283C451.232 187.978 451.39 188.626 451.706 189.227C452.038 189.827 452.496 190.309 453.081 190.673C453.666 191.036 454.337 191.218 455.096 191.218C455.601 191.218 456.083 191.123 456.542 190.933C457.016 190.744 457.434 190.499 457.798 190.198L458.367 191.004C457.924 191.352 457.411 191.636 456.826 191.858C456.257 192.079 455.673 192.189 455.072 192.189ZM463.565 182.732L463.683 185.576L463.541 185.221C463.747 184.652 464.071 184.162 464.513 183.751C464.955 183.341 465.445 183.024 465.983 182.803C466.536 182.582 467.065 182.471 467.571 182.471L467.523 183.562C466.812 183.562 466.164 183.72 465.58 184.036C465.011 184.352 464.552 184.778 464.205 185.316C463.873 185.837 463.707 186.43 463.707 187.093V192H462.593V182.732H463.565ZM477.482 191.099C477.056 191.447 476.574 191.715 476.037 191.905C475.499 192.095 474.938 192.189 474.354 192.189C473.406 192.189 472.56 191.984 471.817 191.573C471.075 191.147 470.49 190.57 470.063 189.843C469.637 189.116 469.423 188.286 469.423 187.354C469.423 186.422 469.645 185.592 470.087 184.865C470.53 184.139 471.114 183.57 471.841 183.159C472.584 182.732 473.39 182.519 474.259 182.519C474.907 182.519 475.507 182.614 476.06 182.803C476.613 182.993 477.095 183.262 477.506 183.609L476.914 184.368C476.582 184.099 476.195 183.878 475.752 183.704C475.31 183.53 474.836 183.443 474.33 183.443C473.635 183.443 472.995 183.617 472.41 183.965C471.841 184.312 471.383 184.786 471.035 185.387C470.703 185.972 470.538 186.627 470.538 187.354C470.538 188.065 470.703 188.721 471.035 189.321C471.383 189.906 471.849 190.372 472.434 190.72C473.034 191.068 473.698 191.241 474.425 191.241C474.899 191.241 475.341 191.17 475.752 191.028C476.163 190.87 476.534 190.665 476.866 190.412L477.482 191.099ZM484.418 192.189C483.533 192.189 482.727 191.992 482 191.597C481.289 191.186 480.721 190.617 480.294 189.89C479.883 189.163 479.678 188.318 479.678 187.354C479.678 186.327 479.899 185.45 480.341 184.723C480.784 183.98 481.384 183.42 482.143 183.04C482.901 182.645 483.762 182.448 484.726 182.448C485.548 182.448 486.322 182.693 487.049 183.183C487.792 183.672 488.321 184.289 488.637 185.031L488.471 185.363L488.614 182.732H489.609V192H488.495V189.132L488.732 189.559C488.621 189.875 488.432 190.191 488.163 190.507C487.895 190.807 487.563 191.091 487.168 191.36C486.788 191.613 486.362 191.818 485.888 191.976C485.429 192.118 484.94 192.189 484.418 192.189ZM484.655 191.241C485.35 191.241 485.975 191.099 486.528 190.815C487.097 190.515 487.555 190.104 487.902 189.582C488.25 189.061 488.448 188.46 488.495 187.781V186.453C488.369 185.869 488.116 185.347 487.737 184.889C487.373 184.431 486.923 184.067 486.385 183.799C485.848 183.53 485.264 183.396 484.631 183.396C483.936 183.396 483.296 183.562 482.712 183.894C482.127 184.21 481.661 184.66 481.313 185.245C480.965 185.829 480.792 186.517 480.792 187.307C480.792 188.034 480.965 188.697 481.313 189.298C481.661 189.882 482.127 190.356 482.712 190.72C483.312 191.068 483.96 191.241 484.655 191.241ZM494.672 196.456L500.716 182.732H501.806L495.833 196.456H494.672ZM496.758 192.095L492.373 182.732H493.629L497.635 191.502L496.758 192.095ZM508.283 192.189C507.398 192.189 506.592 191.992 505.865 191.597C505.154 191.186 504.585 190.617 504.159 189.89C503.748 189.163 503.542 188.318 503.542 187.354C503.542 186.327 503.763 185.45 504.206 184.723C504.648 183.98 505.249 183.42 506.007 183.04C506.766 182.645 507.627 182.448 508.591 182.448C509.413 182.448 510.187 182.693 510.914 183.183C511.656 183.672 512.186 184.289 512.502 185.031L512.336 185.363L512.478 182.732H513.474V192H512.36V189.132L512.597 189.559C512.486 189.875 512.296 190.191 512.028 190.507C511.759 190.807 511.427 191.091 511.032 191.36C510.653 191.613 510.226 191.818 509.752 191.976C509.294 192.118 508.804 192.189 508.283 192.189ZM508.52 191.241C509.215 191.241 509.839 191.099 510.392 190.815C510.961 190.515 511.419 190.104 511.767 189.582C512.115 189.061 512.312 188.46 512.36 187.781V186.453C512.233 185.869 511.98 185.347 511.601 184.889C511.238 184.431 510.787 184.067 510.25 183.799C509.713 183.53 509.128 183.396 508.496 183.396C507.801 183.396 507.161 183.562 506.576 183.894C505.992 184.21 505.525 184.66 505.178 185.245C504.83 185.829 504.656 186.517 504.656 187.307C504.656 188.034 504.83 188.697 505.178 189.298C505.525 189.882 505.992 190.356 506.576 190.72C507.177 191.068 507.825 191.241 508.52 191.241Z" fill="#0D5D56"/>
<path d="M222.225 136.841C222.225 136.841 205.453 142.912 195.829 187.845C186.543 231.197 170.702 248.324 153 264.552C135.297 280.78 119.308 296.648 125.589 317.838C131.871 339.028 154.142 342.454 154.142 342.454C154.142 342.454 151.956 385.502 185.55 400.702C219.144 415.902 363.091 411.004 382.994 389.204C393.369 377.841 398.138 357.321 394.634 341.822C391.416 327.587 380.289 317.838 380.289 317.838C380.289 317.838 403.831 309.846 390.697 279.356C377.563 248.866 354.583 255.678 342.591 221.403C330.599 187.127 330.405 172.86 330.405 172.86L222.225 136.841Z" fill="#00352F"/>
<path d="M382.994 360.63L390.274 374.951L408.434 295.327C408.434 295.327 400.891 288.542 398.656 281.039C396.421 273.535 396.421 273.535 396.421 273.535L402.288 267.511C402.288 267.511 401.171 224.643 404.523 221.57C407.876 218.497 414.022 259.007 414.022 259.007C414.022 259.007 422.962 221.849 426.594 222.967C430.226 224.085 426.594 253.41 426.594 253.41C428.362 252.207 430.713 252.325 432.352 253.698L436.498 257.173C438.31 258.692 438.739 261.309 437.506 263.327L434.765 267.812C434.765 267.812 438.844 263.961 442.398 267.218C445.952 270.476 446.594 276.21 446.002 279.171C445.41 282.132 438.717 290.412 435.904 292.929C433.091 295.446 427.51 299.203 427.51 299.203C427.51 299.203 423.903 352.444 421.409 376.554C418.915 400.664 407.275 443.896 407.275 443.896C407.275 443.896 382.959 434.29 372.08 423.943C361.201 413.596 350.74 400.11 350.74 400.11L360.994 365.746L382.994 360.63Z" fill="#F5CAC3"/>
<path d="M300.809 279.677L299.585 271.028C292.585 274.559 284.619 276.184 276.799 275.569C270.839 275.1 265 273.329 259.74 270.488L259.177 278.934L250.504 283.642L292.383 317.839L310.473 283.394L300.809 279.677Z" fill="#F5CAC3"/>
<path d="M299.585 271.027L297.092 253.409L260.665 256.63L259.741 270.487C265 273.327 270.839 275.099 276.8 275.568C284.619 276.183 292.585 274.558 299.585 271.027Z" fill="#F28482"/>
<path d="M334.738 212.596C334.736 217.362 333.539 222.124 331.285 226.324C329.49 229.67 326.731 232.848 323.01 233.603C318.856 234.447 314.501 231.859 312.46 228.143C308.82 221.516 311.486 209.038 317.206 203.947C325.442 196.615 334.741 202.516 334.738 212.596Z" fill="#F28482"/>
<path d="M321.514 160.55C321.514 160.55 331.646 236.395 312.19 254.869C292.068 273.974 261.624 272.083 242.617 254.869C223.61 237.655 220.024 202.51 217.872 184.937C215.72 167.364 227.627 140.109 271.343 139.75C315.058 139.391 321.514 160.55 321.514 160.55Z" fill="#F5CAC3"/>
<path d="M216.841 218.992C223.507 215.47 227.106 207.989 228.903 200.667C232.506 185.992 230.479 170.008 223.326 156.698C215.498 164.755 210.843 175.103 210.002 186.305C209.161 197.507 211.677 209.016 216.841 218.992Z" fill="#00352F"/>
<path d="M223.827 167.066C227.786 161.258 233.276 156.35 239.856 153.877C246.436 151.404 254.138 151.567 260.232 155.069C266.326 158.572 270.451 165.603 269.749 172.597L330.404 172.86C330.066 162.382 329.065 151.397 323.277 142.657C318.095 134.832 309.524 129.692 300.489 127.155C291.453 124.618 281.92 124.468 272.547 124.959C255.21 125.868 237.719 129.007 222.225 136.841L223.827 167.066Z" fill="#00352F"/>
<path d="M203.781 211.834C203.783 217.157 205.12 222.475 207.637 227.166C209.642 230.903 212.724 234.452 216.879 235.296C221.519 236.238 226.382 233.348 228.661 229.199C232.726 221.797 229.749 207.862 223.361 202.175C214.163 193.986 203.776 200.576 203.781 211.834Z" fill="#F5CAC3"/>
<path opacity="0.5" d="M222.054 226.946C219.744 227.332 217.256 226.287 215.914 224.368C214.572 222.449 214.446 219.753 215.601 217.716C215.927 217.141 216.363 216.605 216.95 216.302C217.445 216.047 218.014 215.974 218.57 215.963C220.799 215.918 223.031 216.842 224.576 218.448C224.022 215.654 223.411 212.823 222.055 210.318C220.699 207.813 218.477 205.637 215.704 204.985C212.931 204.333 209.647 205.559 208.499 208.166C208.499 208.166 205.64 217.321 212.105 223.786C218.571 230.251 222.054 226.946 222.054 226.946Z" fill="#F28482"/>
<path d="M208.5 208.165C209.261 206.113 211.423 204.826 213.591 204.57C215.823 204.305 218.057 205.25 219.727 206.676C221.44 208.101 222.612 210.069 223.41 212.091C224.211 214.128 224.685 216.249 225.101 218.343L225.46 220.152L224.191 218.818C222.889 217.45 221.04 216.578 219.138 216.461C218.169 216.4 217.243 216.475 216.644 217.091C216.023 217.705 215.58 218.608 215.355 219.517C214.907 221.363 215.367 223.462 216.685 224.897C217.981 226.358 220.03 227.156 222.053 226.946C220.055 227.394 217.841 226.715 216.313 225.255C214.781 223.761 214.154 221.462 214.558 219.347C214.778 218.291 215.18 217.253 216.001 216.424C216.407 216.01 216.987 215.705 217.55 215.593C218.117 215.469 218.655 215.468 219.192 215.489C221.346 215.591 223.438 216.529 224.961 218.076L224.051 218.551C223.637 216.467 223.228 214.394 222.489 212.447C221.772 210.495 220.668 208.711 219.169 207.304C217.685 205.915 215.698 204.96 213.633 205.104C211.598 205.182 209.487 206.238 208.5 208.165Z" fill="#00352F"/>
<path d="M280.273 181.969C281.016 184.442 281.742 186.918 282.397 189.41L283.398 193.143C283.742 194.384 284.027 195.646 284.415 196.842C284.805 198.036 285.281 199.188 285.984 200.162C286.674 201.141 287.66 201.857 288.719 202.558C290.874 203.952 293.042 205.359 295.184 206.788L295.542 207.027L295.371 207.403C294.412 209.507 293.081 211.422 291.523 213.098C290.747 213.941 289.879 214.693 288.972 215.381C288.064 216.069 287.103 216.683 286.093 217.191C287.025 216.55 287.914 215.858 288.743 215.105C289.573 214.352 290.33 213.527 291.049 212.679C292.48 210.972 293.619 209.043 294.464 207.008L294.651 207.622C292.455 206.269 290.28 204.9 288.1 203.507C287.007 202.811 285.882 201.957 285.081 200.812C284.28 199.684 283.782 198.411 283.419 197.147C282.715 194.612 282.288 192.098 281.734 189.57C281.193 187.047 280.724 184.509 280.273 181.969Z" fill="#00352F"/>
<path d="M249.423 201.504C250.958 200.693 252.611 200.114 254.289 199.636C255.978 199.197 257.703 198.898 259.434 198.687C261.166 198.465 262.909 198.398 264.646 198.34C266.384 198.307 268.118 198.319 269.848 198.343L269.439 199.317C267.165 197.052 264.131 195.636 260.983 194.816C259.4 194.403 257.766 194.16 256.121 194.01C254.475 193.827 252.813 193.789 251.145 193.727C252.803 193.535 254.472 193.462 256.151 193.461C257.827 193.493 259.51 193.649 261.174 193.971C264.491 194.614 267.752 196.073 270.239 198.507L271.26 199.506L269.831 199.481C266.376 199.421 262.937 199.362 259.515 199.569C257.804 199.67 256.098 199.863 254.415 200.188C252.72 200.473 251.059 200.934 249.423 201.504Z" fill="#00352F"/>
<path d="M238.979 186.159C238.905 183.457 239.542 180.688 240.706 178.097C241.307 176.811 242.041 175.566 242.905 174.391C243.794 173.24 244.809 172.162 245.944 171.189C247.081 170.224 248.265 169.259 249.573 168.447C250.883 167.646 252.369 167.157 253.896 167.04C255.421 166.919 256.968 167.075 258.432 167.528C259.892 167.993 261.286 168.725 262.408 169.934L262.282 170.607C260.853 171.34 259.647 171.859 258.513 172.367L255.327 173.738C254.316 174.164 253.316 174.461 252.24 174.681C251.162 174.89 250.06 175.181 249.064 175.693C248.065 176.197 247.101 176.818 246.195 177.541C245.265 178.24 244.388 179.046 243.589 179.945C241.953 181.722 240.629 183.867 239.653 186.279L238.979 186.159Z" fill="#00352F"/>
<path d="M307.132 195.012C307.132 198.383 305.326 201.115 303.099 201.115C300.872 201.115 299.066 198.383 299.066 195.012C299.066 191.641 300.872 188.909 303.099 188.909C305.326 188.909 307.132 191.641 307.132 195.012Z" fill="#00352F"/>
<path d="M268.188 227.929C271.963 232.117 278.848 238.369 285.659 237.429C286.035 237.377 286.4 237.302 286.76 237.217C286.755 237.209 286.75 237.201 286.745 237.193C282.825 231.084 275.41 227.442 268.188 227.929Z" fill="#F28482"/>
<path d="M299.759 221.906C299.759 221.906 294.204 226.965 284.961 227.663C275.718 228.361 265.253 224.349 265.253 224.349C265.253 224.349 266.356 225.897 268.188 227.929C275.411 227.442 282.825 231.084 286.745 237.193C286.75 237.201 286.755 237.209 286.76 237.217C296.062 234.997 299.759 221.906 299.759 221.906Z" fill="#00352F"/>
<path d="M197.82 500.322L184.688 575H396.075L374.487 489.489C320.032 515.704 255.064 519.722 197.82 500.322Z" fill="#00352F"/>
<path d="M374.487 489.489L356.856 419.652C356.856 419.652 361.353 413.469 367.817 404.194C374.281 394.919 367.817 371.873 367.817 371.873L382.994 360.631C382.994 360.631 362.758 308.074 355.451 301.891C348.144 295.708 304.35 281.039 304.35 281.039C304.35 281.039 301.041 309.816 291.256 308.926C281.471 308.036 255.3 281.038 255.3 281.038C255.3 281.038 190.207 292.643 182.661 299.394C175.115 306.145 136.195 355.391 136.195 355.391C136.195 355.391 135.004 360.157 145.329 371.674C155.655 383.191 169.157 387.56 169.157 387.56L191.397 367.306L209.841 431.959L197.819 500.322C255.064 519.722 320.032 515.704 374.487 489.489Z" fill="#40916C"/>
<path d="M136.195 355.392L91.6372 421.923C91.6372 421.923 131.323 440.774 158.607 451.191C185.891 461.609 200.677 463.593 207.422 461.113C214.167 458.633 223.499 451.687 223.499 451.687C223.499 451.687 238.129 460.951 246.069 462.074C254.009 463.197 264.414 452.368 259.573 446.593C254.732 440.818 221.317 427.368 221.317 427.368C221.317 427.368 252.532 435.694 256.847 437.382C261.161 439.07 257.035 431.332 249.156 428.143C241.278 424.954 223.645 415.152 219.143 415.902C214.641 416.652 201.886 438.224 201.886 438.224L147.113 410.275L169.157 387.56C169.157 387.56 158.952 384.546 148.118 373.898C138.88 364.819 136.195 355.392 136.195 355.392Z" fill="#F5CAC3"/>
<path d="M401.915 267.804C403.672 266.752 405.48 265.793 407.287 264.83C409.112 263.902 410.954 263.007 412.811 262.142C414.662 261.263 416.561 260.492 418.455 259.711C420.354 258.942 422.263 258.195 424.191 257.499L424.647 257.334L424.853 257.768C425.746 259.645 426.079 261.757 425.854 263.804C425.627 265.85 424.806 267.843 423.479 269.404C422.181 270.976 420.399 272.165 418.537 272.805C417.633 273.062 417.452 274.143 417.032 275.03C416.657 275.942 416.27 276.849 415.875 277.753C416.163 276.809 416.459 275.868 416.768 274.932C416.925 274.46 417.061 274.001 417.237 273.518C417.391 273.025 417.836 272.545 418.315 272.335C420.14 271.583 421.689 270.422 422.838 268.894C423.969 267.373 424.712 265.581 424.883 263.702C425.058 261.83 424.718 259.91 423.889 258.237L424.551 258.506C422.632 259.189 420.716 259.885 418.817 260.624C416.912 261.35 415.038 262.151 413.144 262.907C411.255 263.676 409.38 264.479 407.516 265.311C405.636 266.109 403.785 266.972 401.915 267.804Z" fill="#00352F"/>
<path d="M434.764 267.812C433.892 270.277 432.877 272.707 431.539 274.985C430.22 277.272 428.572 279.391 426.618 281.208C425.626 282.106 424.509 282.935 423.208 283.443C421.914 283.95 420.435 284.097 419.077 283.682C418.401 283.477 417.756 283.134 417.238 282.647C416.726 282.157 416.332 281.565 416.076 280.929C415.592 279.647 415.557 278.237 415.974 276.992C415.791 278.284 415.957 279.611 416.55 280.712C417.118 281.822 418.122 282.623 419.296 282.878C420.465 283.139 421.718 282.995 422.828 282.503C423.95 282.025 424.969 281.279 425.891 280.416C427.768 278.685 429.391 276.682 430.822 274.538C432.245 272.387 433.507 270.107 434.764 267.812Z" fill="#00352F"/>
<path d="M441.552 279.171C440.089 280.722 438.522 282.176 436.863 283.516C435.202 284.864 433.504 286.127 431.66 287.273C430.725 287.822 429.734 288.322 428.665 288.648C427.606 288.939 426.45 289.188 425.271 288.841C424.701 288.693 424.105 288.269 423.81 287.769C423.487 287.274 423.293 286.744 423.156 286.211C422.92 285.14 422.836 284.047 423.018 282.99C423.08 284.051 423.273 285.097 423.66 286.052C424.032 287.002 424.588 287.898 425.488 288.029C426.389 288.213 427.406 288.002 428.354 287.676C429.309 287.354 430.224 286.888 431.107 286.349C432.879 285.272 434.621 284.038 436.358 282.847L441.552 279.171Z" fill="#00352F"/>
<path d="M390.274 374.951C389.907 376.429 389.474 377.886 389.076 379.354L387.771 383.721C386.9 386.632 385.948 389.516 384.996 392.4C384.02 395.276 383.042 398.151 381.984 400.999L380.394 405.27C379.827 406.681 379.295 408.105 378.697 409.505C379.064 408.026 379.496 406.57 379.894 405.102L381.198 400.735C382.07 397.824 383.021 394.941 383.974 392.057C384.951 389.182 385.929 386.307 386.987 383.459L388.576 379.187C389.144 377.776 389.676 376.352 390.274 374.951Z" fill="#00352F"/>
<path d="M221.317 435.052C223.012 435.616 224.677 436.26 226.35 436.887C228.007 437.552 229.654 438.241 231.297 438.942C234.58 440.352 237.795 441.915 240.972 443.551C244.137 445.21 247.263 446.944 250.304 448.82C251.822 449.762 253.332 450.715 254.829 451.688C256.303 452.698 257.787 453.69 259.222 454.754L254.554 452.139C253.005 451.259 251.452 450.389 249.889 449.537C246.762 447.837 243.638 446.137 240.476 444.507C237.326 442.855 234.14 441.275 230.952 439.692C229.357 438.902 227.751 438.132 226.142 437.369L221.317 435.052Z" fill="#00352F"/>
<path d="M222.864 444.553C224.301 444.892 225.712 445.316 227.131 445.724C228.536 446.173 229.932 446.649 231.325 447.139C234.107 448.129 236.827 449.288 239.505 450.531C242.173 451.798 244.8 453.152 247.339 454.661C248.605 455.42 249.863 456.192 251.105 456.986C252.325 457.818 253.552 458.634 254.729 459.524L250.835 457.44C249.543 456.741 248.246 456.053 246.939 455.387C244.323 454.059 241.705 452.741 239.047 451.506C236.4 450.247 233.715 449.074 231.023 447.907C229.675 447.326 228.318 446.768 226.955 446.218L222.864 444.553Z" fill="#00352F"/>
<path d="M147.113 410.275C145.423 409.774 143.707 409.395 141.975 409.118C140.249 408.811 138.511 408.579 136.768 408.414C135.027 408.261 133.272 408.108 131.536 408.072C129.812 408.001 128.069 408.145 126.337 408.307C122.864 408.648 119.415 409.3 115.971 409.974C114.248 410.313 112.533 410.694 110.822 411.099C109.101 411.468 107.396 411.902 105.68 412.312C108.978 411.053 112.362 410.034 115.787 409.165C119.212 408.295 122.692 407.606 126.228 407.234C127.116 407.171 127.998 407.065 128.893 407.054L130.231 407.012L131.576 407.054C133.357 407.155 135.114 407.318 136.868 407.594C140.364 408.131 143.866 408.865 147.113 410.275Z" fill="#00352F"/>
<path d="M202.385 165.789C200.766 174.437 198.514 182.97 195.771 191.35C192.962 199.707 189.575 207.883 185.565 215.759C177.554 231.498 166.693 245.913 153.338 257.579C146.678 263.382 139.706 268.736 133.621 274.97C127.543 281.142 122.465 288.444 119.886 296.683C118.628 300.788 118.091 305.142 118.582 309.407C119.004 313.685 120.616 317.799 122.851 321.486C125.085 325.194 128.161 328.385 131.69 330.931C135.255 333.433 139.37 335.177 143.697 335.967C139.335 335.41 135.082 333.835 131.369 331.404C127.683 328.947 124.408 325.798 121.96 322.054C119.55 318.306 117.782 314.058 117.231 309.575C116.614 305.106 117.077 300.536 118.294 296.217C119.502 291.886 121.46 287.797 123.874 284.04C126.273 280.269 129.126 276.798 132.211 273.605C138.382 267.194 145.362 261.749 151.917 255.961C158.524 250.242 164.556 243.906 169.905 236.998C175.277 230.11 179.929 222.68 184.101 214.993C188.25 207.288 191.779 199.244 194.778 191.003C197.843 182.781 200.292 174.331 202.385 165.789Z" fill="#00352F"/>
<path d="M384.836 271.167C388.888 275.366 392.838 279.772 395.722 285.012C397.178 287.613 398.257 290.454 398.953 293.383C399.611 296.322 399.86 299.348 399.714 302.358C399.528 305.363 398.968 308.353 397.97 311.196C397.471 312.617 396.871 314.003 396.167 315.331C395.486 316.671 394.681 317.943 393.796 319.15C390.291 323.997 385.41 327.828 379.91 329.862C385.019 327.01 389.321 322.978 392.409 318.199C395.496 313.424 397.282 307.884 397.564 302.241C397.907 296.593 396.736 290.908 394.232 285.778C391.751 280.612 388.212 275.939 384.836 271.167Z" fill="#00352F"/>
<path opacity="0.5" d="M268.451 216.482C268.646 218.912 264.856 221.2 259.984 221.591C255.113 221.983 251.005 220.33 250.81 217.9C250.615 215.47 254.405 213.182 259.277 212.791C264.148 212.399 268.256 214.051 268.451 216.482Z" fill="#F28482"/>
<path opacity="0.5" d="M297.908 214.991C297.713 217.421 301.503 219.709 306.375 220.101C311.247 220.493 315.354 218.84 315.549 216.41C315.744 213.98 311.954 211.692 307.082 211.301C302.211 210.909 298.104 212.561 297.908 214.991Z" fill="#F28482"/>
<path d="M272.186 417.087C282.305 422.813 295.112 419.992 301.899 410.558C302.627 409.554 302.4 408.15 301.388 407.423C300.383 406.706 298.981 406.932 298.254 407.937C295.319 412.015 290.833 414.709 285.858 415.38C275.836 416.733 266.617 409.71 265.265 399.7C268.097 405.262 273.453 409.098 279.64 410C284.712 401.251 281.736 390.043 272.986 384.96C270.807 383.708 268.398 382.907 265.9 382.617C255.763 381.447 246.559 376.199 240.379 368.081C236.451 383.276 239.722 399.432 249.231 411.913C254.615 418.975 264.293 421.161 272.186 417.087Z" fill="#8FD5A6"/>
<path d="M113.552 127.456C115.838 128.749 118.73 128.112 120.263 125.981C120.428 125.754 120.377 125.437 120.148 125.273C119.921 125.111 119.604 125.162 119.44 125.389C118.777 126.31 117.764 126.919 116.64 127.07C114.376 127.376 112.294 125.789 111.989 123.528C112.628 124.785 113.838 125.651 115.236 125.855C116.381 123.879 115.709 121.347 113.733 120.199C113.241 119.916 112.696 119.735 112.132 119.67C109.842 119.406 107.764 118.22 106.368 116.386C105.48 119.819 106.219 123.468 108.367 126.287C109.583 127.882 111.769 128.376 113.552 127.456Z" fill="#40916C"/>
<path d="M264.601 339.806C254.589 345.712 250.621 358.213 255.395 368.809C255.905 369.939 257.235 370.442 258.366 369.931C259.497 369.428 259.999 368.1 259.488 366.96C257.428 362.385 257.342 357.152 259.244 352.506C263.078 343.145 273.767 338.673 283.119 342.508C276.887 342.186 270.885 344.907 267.014 349.808C272.05 358.576 283.243 361.603 292.011 356.567C294.196 355.311 296.098 353.62 297.597 351.6C303.673 343.414 312.825 338.057 322.944 336.777C311.746 325.767 296.121 320.518 280.564 322.515C271.748 323.65 265.026 330.939 264.601 339.806Z" fill="#8FD5A6"/>
<path d="M111.839 110C109.578 111.334 108.681 114.157 109.76 116.551C109.875 116.806 110.175 116.92 110.431 116.804C110.686 116.691 110.8 116.391 110.684 116.133C110.219 115.1 110.199 113.918 110.629 112.868C111.495 110.754 113.909 109.744 116.022 110.61C114.614 110.537 113.258 111.152 112.384 112.259C113.522 114.239 116.05 114.923 118.03 113.786C118.524 113.502 118.953 113.12 119.292 112.664C120.664 110.815 122.732 109.605 125.017 109.316C122.488 106.829 118.959 105.643 115.445 106.094C113.453 106.351 111.935 107.997 111.839 110Z" fill="#40916C"/>
<path d="M335.314 371.88C335.206 360.258 326.379 350.575 314.806 349.406C313.568 349.288 312.466 350.18 312.348 351.417C312.222 352.654 313.125 353.755 314.362 353.875C319.358 354.38 323.927 356.92 327.01 360.893C333.19 368.893 331.719 380.384 323.72 386.572C327.121 381.332 327.765 374.767 325.46 368.973C315.343 368.953 307.125 377.127 307.104 387.246C307.101 389.761 307.615 392.255 308.615 394.563C312.667 403.92 312.729 414.524 308.783 423.924C323.905 419.727 336.259 408.821 342.315 394.344C345.739 386.158 342.793 376.682 335.314 371.88Z" fill="#8FD5A6"/>
<path d="M127.931 117.129C127.905 114.478 125.736 112.269 122.892 112.002C122.588 111.975 122.317 112.179 122.288 112.461C122.258 112.743 122.479 112.994 122.783 113.022C124.011 113.137 125.133 113.716 125.891 114.623C127.409 116.447 127.048 119.068 125.083 120.48C125.918 119.285 126.077 117.787 125.51 116.466C123.024 116.461 121.005 118.326 121 120.634C120.999 121.207 121.126 121.776 121.371 122.303C122.367 124.437 122.382 126.856 121.413 129C125.128 128.043 128.164 125.555 129.652 122.253C130.493 120.386 129.769 118.224 127.931 117.129Z" fill="#40916C"/>
<path d="M350.74 313.84L367.817 371.872L374.307 367.065L350.74 313.84Z" fill="#0C8346"/>
<path d="M191.398 367.306L184.688 340.777L186.383 371.872L191.398 367.306Z" fill="#0C8346"/>
<path d="M195.685 512.464C203.103 514.905 210.652 516.923 218.244 518.718C225.836 520.515 233.481 522.09 241.184 523.299C243.105 523.628 245.043 523.849 246.971 524.13L249.865 524.539C250.83 524.669 251.801 524.756 252.769 524.867L258.58 525.495L264.409 525.903C265.381 525.964 266.351 526.055 267.324 526.092L270.243 526.169C272.189 526.208 274.135 526.301 276.081 526.295C279.97 526.169 283.869 526.226 287.739 525.81C303.27 524.662 318.579 521.24 333.521 516.845C341.006 514.656 348.372 512.071 355.652 509.267C362.937 506.477 370.136 503.436 377.129 499.959C363.274 507.178 348.689 512.981 333.763 517.638C331.908 518.257 330.015 518.753 328.14 519.309C326.262 519.855 324.38 520.387 322.478 520.843L316.785 522.262L311.049 523.503C303.375 525.015 295.65 526.368 287.821 526.883C283.917 527.286 279.994 527.213 276.08 527.323C274.122 527.32 272.166 527.219 270.21 527.172L267.275 527.082C266.297 527.041 265.323 526.946 264.347 526.88L258.493 526.445L252.661 525.791C250.714 525.595 248.778 525.322 246.845 525.021C244.913 524.715 242.973 524.468 241.05 524.115C225.641 521.448 210.431 517.621 195.685 512.464Z" fill="#0C8346"/>
<path d="M190.259 543.321C192.201 544.175 194.207 544.862 196.252 545.36C198.29 545.88 200.37 546.214 202.453 546.293C204.535 546.338 206.613 546.138 208.587 545.565C210.593 545.047 212.346 543.919 213.936 542.644C215.535 541.329 216.892 539.74 218.135 538.071C219.324 536.356 220.332 534.522 221.256 532.638C222.143 530.736 222.9 528.768 223.528 526.755C224.184 524.749 224.701 522.695 225.096 520.611C224.737 524.847 223.646 529.018 222.013 532.977C221.189 534.958 220.125 536.834 218.939 538.633C217.68 540.381 216.294 542.061 214.63 543.467C212.918 544.806 210.996 545.987 208.86 546.506C206.754 547.068 204.563 547.296 202.41 547.118C198.109 546.75 193.959 545.403 190.259 543.321Z" fill="#0C8346"/>
<path d="M347.995 512.464C348.515 514.638 349.107 516.79 349.829 518.897C350.52 521.012 351.306 523.094 352.244 525.099C353.188 527.099 354.221 529.058 355.501 530.837C356.777 532.609 358.296 534.221 360.126 535.327C361.026 535.91 362.008 536.304 363.052 536.564L364.642 536.923L366.265 537.112C368.442 537.292 370.639 537.111 372.813 536.765C374.989 536.409 377.122 535.772 379.202 535.004C381.295 534.259 383.321 533.32 385.281 532.245C381.585 534.766 377.395 536.608 372.971 537.579C370.758 538.066 368.468 538.228 366.189 538.091L364.482 537.917L362.798 537.563C361.678 537.302 360.547 536.87 359.565 536.246C357.578 535.003 356.004 533.265 354.703 531.404C353.414 529.528 352.333 527.523 351.49 525.432C349.773 521.262 348.608 516.896 347.995 512.464Z" fill="#0C8346"/>
<path d="M298.45 575C298.423 571.542 298.721 568.121 299.098 564.71C299.507 561.302 299.998 557.904 300.815 554.544C300.844 558.002 300.547 561.423 300.168 564.834C299.756 568.241 299.265 571.639 298.45 575Z" fill="#0C8346"/>
<path d="M205.465 143.28C205.233 140.38 205.195 137.324 206.512 134.729C207.045 133.68 208.199 132.623 209.259 133.134C209.978 133.48 210.22 134.369 210.35 135.156C211.455 141.843 210.525 150.242 207.871 156.496C205.897 153.118 205.78 147.213 205.465 143.28Z" fill="#F28482"/>
<path d="M210.277 169.713C210.509 172.613 210.547 175.669 209.23 178.264C208.697 179.313 207.543 180.37 206.483 179.859C205.765 179.513 205.522 178.624 205.392 177.837C204.287 171.15 205.217 162.751 207.871 156.497C209.844 159.875 209.962 165.78 210.277 169.713Z" fill="#F28482"/>
<path d="M221.087 154.09C223.987 153.858 227.043 153.82 229.638 155.137C230.687 155.67 231.744 156.824 231.233 157.884C230.887 158.603 229.998 158.845 229.211 158.975C222.524 160.08 214.125 159.15 207.871 156.496C211.249 154.523 217.154 154.405 221.087 154.09Z" fill="#F28482"/>
<path d="M194.653 158.903C191.753 159.135 188.697 159.173 186.102 157.856C185.053 157.323 183.996 156.169 184.507 155.109C184.853 154.39 185.742 154.148 186.529 154.018C193.216 152.913 201.615 153.843 207.869 156.497C204.492 158.47 198.586 158.588 194.653 158.903Z" fill="#F28482"/>
<path d="M215.514 145.449C217.4 143.234 219.535 141.046 222.301 140.143C223.42 139.778 224.983 139.847 225.371 140.958C225.634 141.711 225.177 142.511 224.713 143.159C220.766 148.669 214.169 153.95 207.87 156.496C208.864 152.712 212.956 148.453 215.514 145.449Z" fill="#F28482"/>
<path d="M200.226 167.544C198.339 169.759 196.205 171.947 193.439 172.85C192.32 173.215 190.757 173.146 190.369 172.035C190.106 171.282 190.563 170.482 191.027 169.834C194.974 164.324 201.571 159.043 207.87 156.497C206.877 160.281 202.784 164.54 200.226 167.544Z" fill="#F28482"/>
<path d="M218.917 164.14C221.132 166.027 223.32 168.161 224.223 170.927C224.588 172.046 224.519 173.609 223.408 173.997C222.655 174.26 221.855 173.804 221.207 173.339C215.697 169.392 210.416 162.795 207.87 156.496C211.655 157.49 215.914 161.582 218.917 164.14Z" fill="#F28482"/>
<path d="M196.823 148.853C194.608 146.967 192.42 144.832 191.517 142.066C191.152 140.947 191.221 139.384 192.332 138.996C193.085 138.733 193.885 139.19 194.533 139.654C200.043 143.601 205.324 150.198 207.87 156.497C204.085 155.503 199.827 151.411 196.823 148.853Z" fill="#F28482"/>
<path d="M210.806 156.496C210.806 158.117 209.492 159.431 207.871 159.431C206.25 159.431 204.936 158.117 204.936 156.496C204.936 154.875 206.25 153.56 207.871 153.56C209.491 153.561 210.806 154.875 210.806 156.496Z" fill="#FFF8ED"/>
<path d="M238.199 142.002C238.039 139.998 238.012 137.886 238.923 136.093C239.291 135.368 240.089 134.638 240.821 134.991C241.318 135.23 241.485 135.844 241.575 136.388C242.339 141.009 241.696 146.813 239.862 151.136C238.498 148.801 238.417 144.72 238.199 142.002Z" fill="#329F5B"/>
<path d="M241.525 160.269C241.686 162.273 241.712 164.385 240.801 166.178C240.433 166.903 239.635 167.633 238.903 167.28C238.407 167.041 238.239 166.427 238.149 165.883C237.385 161.262 238.028 155.458 239.862 151.135C241.226 153.47 241.308 157.551 241.525 160.269Z" fill="#329F5B"/>
<path d="M248.996 149.472C251 149.312 253.112 149.285 254.905 150.196C255.63 150.564 256.36 151.362 256.007 152.094C255.768 152.591 255.154 152.758 254.61 152.848C249.989 153.612 244.185 152.969 239.862 151.135C242.197 149.772 246.278 149.69 248.996 149.472Z" fill="#329F5B"/>
<path d="M230.729 152.799C228.725 152.959 226.613 152.986 224.82 152.075C224.095 151.707 223.365 150.909 223.718 150.177C223.957 149.681 224.572 149.513 225.115 149.423C229.736 148.659 235.54 149.302 239.863 151.136C237.527 152.499 233.447 152.581 230.729 152.799Z" fill="#329F5B"/>
<path d="M245.145 143.501C246.449 141.97 247.924 140.458 249.835 139.834C250.608 139.582 251.688 139.629 251.957 140.397C252.139 140.917 251.823 141.47 251.502 141.918C248.774 145.726 244.216 149.375 239.862 151.135C240.549 148.52 243.377 145.577 245.145 143.501Z" fill="#329F5B"/>
<path d="M234.58 158.77C233.276 160.301 231.801 161.813 229.89 162.437C229.117 162.689 228.037 162.642 227.768 161.874C227.586 161.354 227.902 160.801 228.223 160.353C230.951 156.545 235.509 152.896 239.863 151.136C239.176 153.751 236.348 156.694 234.58 158.77Z" fill="#329F5B"/>
<path d="M247.497 156.418C249.028 157.722 250.54 159.197 251.164 161.108C251.416 161.881 251.369 162.962 250.601 163.23C250.081 163.412 249.528 163.096 249.08 162.775C245.272 160.047 241.623 155.489 239.863 151.135C242.478 151.822 245.421 154.65 247.497 156.418Z" fill="#329F5B"/>
<path d="M232.228 145.853C230.697 144.549 229.185 143.074 228.561 141.163C228.309 140.39 228.356 139.309 229.124 139.041C229.644 138.859 230.197 139.175 230.645 139.496C234.453 142.224 238.102 146.782 239.862 151.136C237.247 150.449 234.304 147.621 232.228 145.853Z" fill="#329F5B"/>
<path d="M239.862 153.164C240.983 153.164 241.891 152.256 241.891 151.135C241.891 150.014 240.983 149.106 239.862 149.106C238.741 149.106 237.833 150.014 237.833 151.135C237.833 152.256 238.741 153.164 239.862 153.164Z" fill="#F28482"/>
<path d="M220.246 237.217C222.154 237.217 223.7 235.671 223.7 233.763C223.7 231.855 222.154 230.309 220.246 230.309C218.338 230.309 216.792 231.855 216.792 233.763C216.792 235.671 218.338 237.217 220.246 237.217Z" fill="#FFF8ED"/>
<path d="M215.308 251.994C217.119 249.349 218.242 246.304 219.347 243.294C220.037 241.415 220.726 239.537 221.416 237.658C220.822 237.226 220.156 236.949 219.417 236.922C216.416 236.81 213.224 239.951 211.845 242.304C210.341 244.87 209.588 247.796 208.432 250.536C206.904 254.159 204.649 257.47 201.846 260.228C207.204 259.488 212.246 256.467 215.308 251.994Z" fill="#329F5B"/>
<path d="M224.714 243.943C224.448 242.028 223.307 239.034 221.416 237.658C220.726 239.537 220.037 241.415 219.347 243.294C218.242 246.304 217.119 249.348 215.308 251.994C212.246 256.467 207.203 259.488 201.845 260.229C201.773 260.3 201.705 260.374 201.633 260.444C206.936 262.573 213.304 262.029 218.007 258.784C222.711 255.538 225.501 249.604 224.714 243.943Z" fill="#0C8346"/>
<path d="M326.018 237.217C327.926 237.217 329.472 235.671 329.472 233.763C329.472 231.855 327.926 230.309 326.018 230.309C324.111 230.309 322.564 231.855 322.564 233.763C322.564 235.671 324.111 237.217 326.018 237.217Z" fill="#FFF8ED"/>
<path d="M330.955 251.994C329.144 249.349 328.021 246.304 326.916 243.294C326.226 241.415 325.537 239.537 324.847 237.658C325.441 237.226 326.107 236.949 326.846 236.922C329.847 236.81 333.039 239.951 334.418 242.304C335.922 244.87 336.675 247.796 337.831 250.536C339.359 254.159 341.614 257.47 344.417 260.228C339.059 259.488 334.017 256.467 330.955 251.994Z" fill="#329F5B"/>
<path d="M321.549 243.943C321.815 242.028 322.956 239.034 324.847 237.658C325.537 239.537 326.226 241.415 326.916 243.294C328.021 246.304 329.144 249.348 330.955 251.994C334.017 256.467 339.06 259.488 344.418 260.229C344.49 260.3 344.558 260.374 344.63 260.444C339.327 262.573 332.959 262.029 328.256 258.784C323.552 255.538 320.762 249.604 321.549 243.943Z" fill="#0C8346"/>
<g opacity="0.5">
<path d="M252.91 139.7C257.595 138.14 262.636 137.346 267.636 137.974C272.635 138.527 277.453 140.934 280.93 144.608C284.39 148.3 286.726 152.948 287.874 157.811C288.442 160.247 288.784 162.725 288.919 165.207C289.028 167.691 288.983 170.175 288.761 172.641C288.738 170.166 288.678 167.695 288.392 165.249C288.153 162.801 287.723 160.375 287.071 158.018C285.787 153.312 283.529 148.84 280.152 145.352C278.492 143.596 276.566 142.085 274.413 140.991C272.266 139.88 269.919 139.186 267.519 138.79C265.117 138.381 262.652 138.352 260.206 138.534C257.752 138.686 255.321 139.145 252.91 139.7Z" fill="#FFF8ED"/>
<path d="M275.504 134.176C280.6 133.899 285.8 133.731 290.865 135.006C295.945 136.237 300.47 139.355 303.808 143.336C307.126 147.364 309.333 152.235 310.414 157.286C310.963 159.813 311.256 162.385 311.366 164.954C311.439 167.526 311.354 170.096 311.068 172.642C311.109 170.081 311.089 167.524 310.838 164.987C310.623 162.451 310.241 159.929 309.606 157.476C308.382 152.57 306.247 147.866 302.98 144.026C301.378 142.093 299.534 140.355 297.45 138.956C295.378 137.536 293.062 136.522 290.647 135.804C288.225 135.099 285.701 134.727 283.162 134.532C280.624 134.291 278.063 134.269 275.504 134.176Z" fill="#FFF8ED"/>
<path d="M291.294 135.256C293.508 135.425 295.699 135.872 297.849 136.474C299.989 137.113 302.072 137.956 304.069 138.977C308.065 141.019 311.659 143.881 314.537 147.363C317.395 150.861 319.47 154.989 320.558 159.349C321.104 161.527 321.44 163.751 321.569 165.98C321.659 168.211 321.592 170.444 321.274 172.641C321.32 170.424 321.266 168.212 320.98 166.03C320.734 163.846 320.302 161.688 319.664 159.599C318.399 155.421 316.374 151.479 313.605 148.129C310.857 144.76 307.416 141.969 303.628 139.79C301.733 138.697 299.734 137.778 297.666 137.034C295.608 136.252 293.469 135.694 291.294 135.256Z" fill="#FFF8ED"/>
</g>
<path d="M520.797 521.699C520.623 519.527 520.595 517.237 521.581 515.294C521.98 514.508 522.845 513.717 523.639 514.1C524.177 514.359 524.359 515.025 524.457 515.614C525.285 520.623 524.588 526.914 522.6 531.598C521.121 529.068 521.033 524.645 520.797 521.699Z" fill="#2D6A4F"/>
<path d="M524.401 541.498C524.575 543.67 524.603 545.96 523.617 547.903C523.218 548.689 522.353 549.48 521.559 549.097C521.021 548.838 520.839 548.172 520.742 547.583C519.914 542.574 520.611 536.283 522.599 531.599C524.077 534.129 524.165 538.552 524.401 541.498Z" fill="#2D6A4F"/>
<path d="M532.498 529.795C534.67 529.621 536.96 529.592 538.903 530.579C539.689 530.978 540.48 531.843 540.098 532.637C539.839 533.175 539.173 533.357 538.584 533.454C533.575 534.282 527.284 533.585 522.6 531.597C525.13 530.119 529.553 530.031 532.498 529.795Z" fill="#2D6A4F"/>
<path d="M512.699 533.401C510.527 533.575 508.237 533.603 506.294 532.617C505.508 532.218 504.717 531.353 505.099 530.559C505.358 530.021 506.024 529.839 506.613 529.742C511.622 528.914 517.913 529.611 522.597 531.599C520.068 533.077 515.645 533.165 512.699 533.401Z" fill="#2D6A4F"/>
<path d="M528.324 523.324C529.737 521.665 531.336 520.026 533.407 519.35C534.245 519.076 535.416 519.127 535.707 519.959C535.904 520.523 535.562 521.123 535.214 521.609C532.258 525.736 527.317 529.692 522.598 531.599C523.343 528.763 526.408 525.573 528.324 523.324Z" fill="#2D6A4F"/>
<path d="M516.873 539.873C515.46 541.532 513.861 543.171 511.79 543.847C510.952 544.12 509.781 544.069 509.49 543.237C509.293 542.673 509.635 542.074 509.983 541.588C512.939 537.461 517.88 533.505 522.599 531.598C521.855 534.433 518.789 537.623 516.873 539.873Z" fill="#2D6A4F"/>
<path d="M530.874 537.324C532.533 538.737 534.172 540.336 534.848 542.407C535.121 543.245 535.07 544.416 534.238 544.707C533.674 544.904 533.075 544.562 532.589 544.214C528.462 541.258 524.506 536.317 522.599 531.598C525.434 532.343 528.624 535.408 530.874 537.324Z" fill="#2D6A4F"/>
<path d="M514.324 525.873C512.665 524.46 511.026 522.861 510.35 520.79C510.077 519.952 510.128 518.781 510.96 518.49C511.524 518.293 512.123 518.635 512.609 518.983C516.736 521.939 520.692 526.88 522.599 531.599C519.764 530.854 516.574 527.789 514.324 525.873Z" fill="#2D6A4F"/>
<path d="M524.798 531.598C524.798 532.812 523.814 533.797 522.599 533.797C521.384 533.797 520.4 532.813 520.4 531.598C520.4 530.384 521.384 529.399 522.599 529.399C523.814 529.399 524.798 530.384 524.798 531.598Z" fill="white"/>
<path d="M443.22 475.468C443.097 473.926 443.077 472.299 443.777 470.919C444.061 470.361 444.675 469.799 445.239 470.071C445.621 470.255 445.751 470.728 445.82 471.146C446.408 474.704 445.913 479.173 444.501 482.5C443.451 480.703 443.388 477.561 443.22 475.468Z" fill="#F28482"/>
<path d="M445.781 489.532C445.904 491.074 445.924 492.701 445.224 494.081C444.941 494.639 444.326 495.201 443.762 494.929C443.38 494.745 443.251 494.272 443.182 493.854C442.594 490.296 443.089 485.827 444.501 482.5C445.551 484.297 445.613 487.439 445.781 489.532Z" fill="#F28482"/>
<path d="M451.532 481.22C453.075 481.096 454.701 481.076 456.082 481.777C456.64 482.06 457.202 482.674 456.93 483.238C456.746 483.621 456.273 483.75 455.855 483.819C452.297 484.407 447.829 483.912 444.501 482.5C446.299 481.45 449.44 481.387 451.532 481.22Z" fill="#F28482"/>
<path d="M437.469 483.78C435.926 483.904 434.299 483.924 432.919 483.224C432.361 482.94 431.799 482.326 432.07 481.762C432.254 481.38 432.727 481.25 433.146 481.181C436.704 480.593 441.172 481.088 444.499 482.5C442.703 483.55 439.561 483.613 437.469 483.78Z" fill="#F28482"/>
<path d="M448.567 476.622C449.571 475.444 450.707 474.28 452.178 473.8C452.773 473.605 453.605 473.642 453.811 474.233C453.951 474.634 453.708 475.059 453.461 475.404C451.362 478.336 447.852 481.146 444.5 482.5C445.029 480.486 447.206 478.22 448.567 476.622Z" fill="#F28482"/>
<path d="M440.433 488.377C439.43 489.556 438.294 490.72 436.823 491.2C436.227 491.394 435.396 491.358 435.189 490.767C435.049 490.366 435.292 489.941 435.539 489.595C437.639 486.664 441.148 483.854 444.5 482.499C443.972 484.513 441.794 486.779 440.433 488.377Z" fill="#F28482"/>
<path d="M450.379 486.567C451.557 487.571 452.721 488.706 453.201 490.177C453.395 490.773 453.359 491.604 452.768 491.811C452.368 491.951 451.942 491.708 451.597 491.461C448.665 489.361 445.856 485.852 444.501 482.5C446.515 483.029 448.781 485.206 450.379 486.567Z" fill="#F28482"/>
<path d="M438.623 478.433C437.445 477.429 436.281 476.294 435.801 474.823C435.607 474.227 435.643 473.396 436.234 473.189C436.634 473.049 437.06 473.292 437.405 473.539C440.337 475.639 443.147 479.148 444.501 482.5C442.487 481.971 440.221 479.794 438.623 478.433Z" fill="#F28482"/>
<path d="M446.063 482.5C446.063 483.362 445.364 484.062 444.501 484.062C443.638 484.062 442.939 483.363 442.939 482.5C442.939 481.637 443.638 480.938 444.501 480.938C445.364 480.938 446.063 481.637 446.063 482.5Z" fill="white"/>
<path d="M508.079 420.937C507.99 419.826 507.975 418.655 508.48 417.662C508.684 417.26 509.126 416.855 509.532 417.051C509.807 417.183 509.9 417.524 509.951 417.825C510.374 420.387 510.018 423.604 509.001 426C508.244 424.706 508.199 422.444 508.079 420.937Z" fill="#52B788"/>
<path d="M509.922 431.063C510.011 432.174 510.025 433.345 509.521 434.339C509.317 434.741 508.875 435.145 508.469 434.949C508.194 434.817 508.1 434.476 508.051 434.175C507.627 431.613 507.984 428.396 509.001 426C509.756 427.294 509.801 429.556 509.922 431.063Z" fill="#52B788"/>
<path d="M514.063 425.078C515.174 424.989 516.345 424.975 517.339 425.479C517.741 425.683 518.145 426.126 517.95 426.532C517.817 426.807 517.477 426.9 517.176 426.95C514.614 427.373 511.396 427.017 509.001 426C510.295 425.244 512.557 425.199 514.063 425.078Z" fill="#52B788"/>
<path d="M503.937 426.922C502.827 427.011 501.656 427.025 500.662 426.521C500.26 426.317 499.855 425.875 500.051 425.468C500.183 425.193 500.524 425.1 500.825 425.051C503.387 424.627 506.604 424.984 509 426C507.706 426.756 505.444 426.801 503.937 426.922Z" fill="#52B788"/>
<path d="M511.928 421.768C512.651 420.92 513.469 420.082 514.528 419.736C514.957 419.596 515.555 419.622 515.704 420.048C515.805 420.336 515.63 420.643 515.452 420.891C513.94 423.002 511.413 425.025 509 426C509.381 424.55 510.949 422.918 511.928 421.768Z" fill="#52B788"/>
<path d="M506.072 430.232C505.349 431.08 504.532 431.918 503.472 432.264C503.044 432.404 502.445 432.378 502.296 431.952C502.195 431.664 502.37 431.357 502.548 431.109C504.06 428.998 506.587 426.975 509 426C508.62 427.45 507.052 429.081 506.072 430.232Z" fill="#52B788"/>
<path d="M513.232 428.928C514.081 429.651 514.919 430.468 515.265 431.528C515.404 431.956 515.378 432.555 514.953 432.704C514.664 432.805 514.358 432.63 514.11 432.452C511.999 430.94 509.976 428.413 509 426C510.45 426.381 512.082 427.948 513.232 428.928Z" fill="#52B788"/>
<path d="M504.769 423.072C503.92 422.349 503.082 421.531 502.736 420.472C502.597 420.044 502.623 419.445 503.048 419.296C503.337 419.195 503.643 419.37 503.892 419.548C506.002 421.06 508.026 423.587 509.001 426C507.551 425.619 505.919 424.052 504.769 423.072Z" fill="#52B788"/>
<path d="M510.125 426C510.125 426.62 509.622 427.124 509.001 427.124C508.379 427.124 507.876 426.621 507.876 426C507.876 425.379 508.379 424.875 509.001 424.875C509.622 424.875 510.125 425.379 510.125 426Z" fill="white"/>
<path d="M118.772 519.25C118.653 517.769 118.634 516.207 119.306 514.882C119.578 514.346 120.168 513.807 120.709 514.068C121.076 514.245 121.2 514.699 121.267 515.1C121.832 518.516 121.357 522.806 120.001 526C118.992 524.274 118.932 521.258 118.772 519.25Z" fill="#2D6A4F"/>
<path d="M121.23 532.75C121.348 534.231 121.367 535.793 120.695 537.118C120.423 537.654 119.833 538.193 119.292 537.932C118.925 537.756 118.801 537.301 118.735 536.9C118.17 533.484 118.645 529.194 120.001 526C121.009 527.726 121.069 530.742 121.23 532.75Z" fill="#2D6A4F"/>
<path d="M126.751 524.771C128.232 524.653 129.793 524.633 131.118 525.306C131.654 525.578 132.194 526.168 131.933 526.709C131.757 527.076 131.302 527.2 130.901 527.266C127.485 527.831 123.195 527.356 120.001 526C121.727 524.992 124.743 524.932 126.751 524.771Z" fill="#2D6A4F"/>
<path d="M113.25 527.229C111.769 527.348 110.207 527.367 108.882 526.695C108.346 526.423 107.807 525.833 108.068 525.291C108.244 524.924 108.698 524.8 109.1 524.734C112.516 524.17 116.805 524.645 119.999 526C118.275 527.008 115.259 527.068 113.25 527.229Z" fill="#2D6A4F"/>
<path d="M123.905 520.358C124.868 519.226 125.958 518.109 127.371 517.648C127.942 517.461 128.741 517.496 128.939 518.064C129.073 518.448 128.84 518.857 128.603 519.188C126.587 522.002 123.218 524.7 120 526C120.508 524.066 122.598 521.891 123.905 520.358Z" fill="#2D6A4F"/>
<path d="M116.096 531.642C115.132 532.773 114.042 533.891 112.63 534.352C112.058 534.538 111.26 534.503 111.061 533.936C110.927 533.551 111.16 533.143 111.398 532.812C113.413 529.997 116.782 527.3 120 526C119.493 527.933 117.402 530.108 116.096 531.642Z" fill="#2D6A4F"/>
<path d="M125.643 529.904C126.774 530.868 127.892 531.958 128.353 533.37C128.539 533.942 128.504 534.74 127.937 534.939C127.552 535.073 127.144 534.84 126.813 534.603C123.998 532.587 121.301 529.218 120 526C121.934 526.508 124.109 528.598 125.643 529.904Z" fill="#2D6A4F"/>
<path d="M114.358 522.096C113.227 521.132 112.109 520.042 111.648 518.63C111.462 518.058 111.497 517.26 112.064 517.061C112.449 516.927 112.857 517.16 113.189 517.397C116.003 519.413 118.701 522.782 120.001 526C118.068 525.492 115.892 523.402 114.358 522.096Z" fill="#2D6A4F"/>
<path d="M121.5 525.999C121.5 526.827 120.829 527.499 120.001 527.499C119.172 527.499 118.501 526.828 118.501 525.999C118.501 525.172 119.172 524.5 120.001 524.5C120.829 524.5 121.5 525.172 121.5 525.999Z" fill="white"/>
<path d="M157.772 470.25C157.653 468.769 157.634 467.207 158.306 465.882C158.578 465.346 159.168 464.807 159.709 465.068C160.076 465.245 160.2 465.699 160.267 466.1C160.832 469.516 160.357 473.806 159.001 477C157.992 475.274 157.932 472.258 157.772 470.25Z" fill="#95D5B2"/>
<path d="M160.23 483.75C160.348 485.231 160.367 486.793 159.695 488.118C159.423 488.654 158.833 489.193 158.292 488.932C157.925 488.756 157.801 488.301 157.735 487.9C157.17 484.484 157.645 480.194 159.001 477C160.009 478.726 160.069 481.742 160.23 483.75Z" fill="#95D5B2"/>
<path d="M165.751 475.771C167.232 475.653 168.793 475.633 170.118 476.306C170.654 476.578 171.194 477.168 170.933 477.709C170.757 478.076 170.302 478.2 169.901 478.266C166.485 478.831 162.195 478.356 159.001 477C160.727 475.992 163.743 475.932 165.751 475.771Z" fill="#95D5B2"/>
<path d="M152.25 478.229C150.769 478.348 149.207 478.367 147.882 477.695C147.346 477.423 146.807 476.833 147.068 476.291C147.244 475.924 147.698 475.8 148.1 475.734C151.516 475.17 155.805 475.645 158.999 477C157.275 478.008 154.259 478.068 152.25 478.229Z" fill="#95D5B2"/>
<path d="M162.905 471.358C163.868 470.226 164.958 469.109 166.371 468.648C166.942 468.461 167.741 468.496 167.939 469.064C168.073 469.448 167.84 469.857 167.603 470.188C165.587 473.002 162.218 475.7 159 477C159.508 475.066 161.598 472.891 162.905 471.358Z" fill="#95D5B2"/>
<path d="M155.096 482.642C154.132 483.773 153.042 484.891 151.63 485.352C151.058 485.538 150.26 485.503 150.061 484.936C149.927 484.551 150.16 484.143 150.398 483.812C152.413 480.997 155.782 478.3 159 477C158.493 478.933 156.402 481.108 155.096 482.642Z" fill="#95D5B2"/>
<path d="M164.643 480.904C165.774 481.868 166.892 482.958 167.353 484.37C167.539 484.942 167.504 485.74 166.937 485.939C166.552 486.073 166.144 485.84 165.813 485.603C162.998 483.587 160.301 480.218 159 477C160.934 477.508 163.109 479.598 164.643 480.904Z" fill="#95D5B2"/>
<path d="M153.358 473.096C152.227 472.132 151.109 471.042 150.648 469.63C150.462 469.058 150.497 468.26 151.064 468.061C151.449 467.927 151.857 468.16 152.189 468.397C155.003 470.413 157.701 473.782 159.001 477C157.068 476.492 154.892 474.402 153.358 473.096Z" fill="#95D5B2"/>
<path d="M160.5 476.999C160.5 477.827 159.829 478.499 159.001 478.499C158.172 478.499 157.501 477.828 157.501 476.999C157.501 476.172 158.172 475.5 159.001 475.5C159.829 475.5 160.5 476.172 160.5 476.999Z" fill="white"/>
<path d="M125.362 183.999C125.204 182.025 125.179 179.943 126.075 178.176C126.438 177.461 127.224 176.742 127.946 177.091C128.435 177.326 128.601 177.932 128.69 178.467C129.443 183.021 128.809 188.741 127.001 193C125.657 190.699 125.577 186.678 125.362 183.999Z" fill="#B7E4C7"/>
<path d="M128.64 202C128.798 203.975 128.823 206.057 127.927 207.824C127.564 208.538 126.778 209.258 126.056 208.909C125.567 208.674 125.401 208.068 125.313 207.533C124.56 202.979 125.194 197.259 127.001 193C128.345 195.301 128.425 199.322 128.64 202Z" fill="#B7E4C7"/>
<path d="M136.001 191.362C137.976 191.203 140.058 191.177 141.824 192.074C142.539 192.437 143.258 193.224 142.911 193.946C142.676 194.435 142.07 194.6 141.534 194.688C136.98 195.441 131.261 194.807 127.002 193C129.302 191.656 133.324 191.576 136.001 191.362Z" fill="#B7E4C7"/>
<path d="M118 194.639C116.025 194.797 113.943 194.823 112.177 193.926C111.462 193.563 110.743 192.777 111.09 192.055C111.326 191.566 111.931 191.4 112.467 191.312C117.021 190.559 122.74 191.193 126.999 193.001C124.7 194.344 120.678 194.424 118 194.639Z" fill="#B7E4C7"/>
<path d="M132.206 185.477C133.491 183.969 134.944 182.479 136.827 181.864C137.589 181.615 138.654 181.662 138.919 182.419C139.098 182.931 138.787 183.476 138.47 183.918C135.783 187.67 131.29 191.267 127 193.001C127.677 190.422 130.464 187.522 132.206 185.477Z" fill="#B7E4C7"/>
<path d="M121.794 200.523C120.51 202.032 119.056 203.522 117.173 204.136C116.411 204.385 115.346 204.338 115.082 203.582C114.903 203.069 115.214 202.524 115.53 202.083C118.218 198.33 122.71 194.734 127 193C126.324 195.577 123.536 198.478 121.794 200.523Z" fill="#B7E4C7"/>
<path d="M134.524 198.206C136.032 199.49 137.523 200.944 138.137 202.827C138.385 203.589 138.339 204.654 137.583 204.918C137.07 205.097 136.525 204.786 136.083 204.47C132.331 201.782 128.734 197.29 127 193C129.578 193.677 132.478 196.464 134.524 198.206Z" fill="#B7E4C7"/>
<path d="M119.478 187.794C117.969 186.509 116.479 185.056 115.865 183.173C115.616 182.411 115.663 181.346 116.419 181.081C116.932 180.902 117.477 181.213 117.919 181.53C121.671 184.217 125.268 188.71 127.001 193C124.424 192.323 121.523 189.536 119.478 187.794Z" fill="#B7E4C7"/>
<path d="M129.001 192.999C129.001 194.103 128.106 194.999 127.001 194.999C125.897 194.999 125.002 194.104 125.002 192.999C125.002 191.896 125.897 191 127.001 191C128.106 191 129.001 191.896 129.001 192.999Z" fill="white"/>
<path d="M172.874 118.813C172.765 117.455 172.747 116.024 173.364 114.809C173.613 114.318 174.154 113.824 174.65 114.063C174.986 114.225 175.1 114.641 175.161 115.009C175.679 118.14 175.243 122.072 174.001 125C173.076 123.419 173.021 120.654 172.874 118.813Z" fill="#52B788"/>
<path d="M175.127 131.188C175.236 132.545 175.253 133.977 174.637 135.191C174.387 135.683 173.847 136.177 173.35 135.938C173.014 135.776 172.9 135.359 172.84 134.991C172.322 131.86 172.758 127.928 174 125C174.924 126.582 174.979 129.346 175.127 131.188Z" fill="#52B788"/>
<path d="M180.188 123.874C181.545 123.765 182.977 123.747 184.191 124.364C184.682 124.613 185.177 125.154 184.938 125.65C184.776 125.987 184.36 126.1 183.992 126.161C180.861 126.679 176.929 126.243 174.001 125C175.582 124.076 178.347 124.021 180.188 123.874Z" fill="#52B788"/>
<path d="M167.812 126.127C166.455 126.236 165.023 126.253 163.809 125.637C163.318 125.388 162.823 124.847 163.062 124.351C163.224 124.014 163.64 123.901 164.008 123.84C167.139 123.322 171.071 123.758 173.999 125.001C172.418 125.925 169.654 125.98 167.812 126.127Z" fill="#52B788"/>
<path d="M177.579 119.828C178.462 118.791 179.461 117.767 180.756 117.344C181.279 117.173 182.011 117.206 182.193 117.726C182.316 118.078 182.103 118.453 181.885 118.756C180.037 121.336 176.949 123.809 174 125.001C174.465 123.228 176.381 121.234 177.579 119.828Z" fill="#52B788"/>
<path d="M170.421 130.172C169.538 131.209 168.538 132.234 167.244 132.656C166.72 132.827 165.988 132.795 165.806 132.275C165.683 131.922 165.897 131.548 166.114 131.244C167.962 128.665 171.05 126.192 174 125C173.535 126.772 171.618 128.766 170.421 130.172Z" fill="#52B788"/>
<path d="M179.172 128.579C180.209 129.462 181.234 130.462 181.656 131.756C181.827 132.28 181.795 133.012 181.275 133.194C180.922 133.317 180.548 133.103 180.244 132.886C177.665 131.038 175.192 127.95 174 125C175.772 125.466 177.766 127.382 179.172 128.579Z" fill="#52B788"/>
<path d="M168.828 121.421C167.792 120.538 166.767 119.539 166.345 118.244C166.174 117.721 166.206 116.989 166.726 116.807C167.078 116.684 167.453 116.897 167.757 117.115C170.336 118.963 172.809 122.051 174.001 125C172.229 124.535 170.235 122.619 168.828 121.421Z" fill="#52B788"/>
<path d="M175.375 125C175.375 125.759 174.76 126.374 174 126.374C173.241 126.374 172.626 125.759 172.626 125C172.626 124.241 173.241 123.625 174 123.625C174.76 123.625 175.375 124.241 175.375 125Z" fill="white"/>
<path d="M456.079 369.937C455.99 368.826 455.975 367.655 456.48 366.662C456.684 366.26 457.126 365.855 457.532 366.051C457.807 366.183 457.9 366.524 457.951 366.825C458.374 369.387 458.018 372.604 457.001 375C456.244 373.706 456.199 371.444 456.079 369.937Z" fill="#2D6A4F"/>
<path d="M457.922 380.063C458.011 381.174 458.025 382.345 457.521 383.339C457.317 383.741 456.875 384.145 456.469 383.949C456.194 383.817 456.1 383.476 456.051 383.175C455.627 380.613 455.984 377.396 457.001 375C457.756 376.294 457.801 378.556 457.922 380.063Z" fill="#2D6A4F"/>
<path d="M462.063 374.078C463.174 373.989 464.345 373.975 465.339 374.479C465.741 374.683 466.145 375.126 465.95 375.532C465.817 375.807 465.477 375.9 465.176 375.95C462.614 376.373 459.396 376.017 457.001 375C458.295 374.244 460.557 374.199 462.063 374.078Z" fill="#2D6A4F"/>
<path d="M451.937 375.922C450.827 376.011 449.656 376.025 448.662 375.521C448.26 375.317 447.855 374.875 448.051 374.468C448.183 374.193 448.524 374.1 448.825 374.051C451.387 373.627 454.604 373.984 457 375C455.706 375.756 453.444 375.801 451.937 375.922Z" fill="#2D6A4F"/>
<path d="M459.928 370.768C460.651 369.92 461.469 369.082 462.528 368.736C462.957 368.596 463.555 368.622 463.704 369.048C463.805 369.336 463.63 369.643 463.452 369.891C461.94 372.002 459.413 374.025 457 375C457.381 373.55 458.949 371.918 459.928 370.768Z" fill="#2D6A4F"/>
<path d="M454.072 379.232C453.349 380.08 452.532 380.918 451.472 381.264C451.044 381.404 450.445 381.378 450.296 380.952C450.195 380.664 450.37 380.357 450.548 380.109C452.06 377.998 454.587 375.975 457 375C456.62 376.45 455.052 378.081 454.072 379.232Z" fill="#2D6A4F"/>
<path d="M461.232 377.928C462.081 378.651 462.919 379.468 463.265 380.528C463.404 380.956 463.378 381.555 462.953 381.704C462.664 381.805 462.358 381.63 462.11 381.452C459.999 379.94 457.976 377.413 457 375C458.45 375.381 460.082 376.948 461.232 377.928Z" fill="#2D6A4F"/>
<path d="M452.769 372.072C451.92 371.349 451.082 370.531 450.736 369.472C450.597 369.044 450.623 368.445 451.048 368.296C451.337 368.195 451.643 368.37 451.892 368.548C454.002 370.06 456.026 372.587 457.001 375C455.551 374.619 453.919 373.052 452.769 372.072Z" fill="#2D6A4F"/>
<path d="M458.125 375C458.125 375.62 457.622 376.124 457.001 376.124C456.379 376.124 455.876 375.621 455.876 375C455.876 374.379 456.379 373.875 457.001 373.875C457.622 373.875 458.125 374.379 458.125 375Z" fill="white"/>
<path d="M512.709 306.656C512.536 304.496 512.508 302.219 513.488 300.287C513.885 299.505 514.745 298.719 515.535 299.1C516.07 299.357 516.251 300.019 516.348 300.605C517.172 305.586 516.478 311.842 514.502 316.5C513.031 313.984 512.943 309.586 512.709 306.656Z" fill="#F28482"/>
<path d="M516.293 326.344C516.466 328.504 516.493 330.781 515.513 332.714C515.116 333.495 514.256 334.282 513.466 333.901C512.931 333.643 512.751 332.981 512.654 332.395C511.831 327.414 512.524 321.159 514.501 316.501C515.97 319.017 516.058 323.415 516.293 326.344Z" fill="#F28482"/>
<path d="M524.344 314.708C526.504 314.535 528.781 314.506 530.713 315.488C531.495 315.885 532.282 316.745 531.902 317.534C531.644 318.069 530.982 318.25 530.396 318.347C525.415 319.17 519.159 318.477 514.501 316.5C517.017 315.03 521.416 314.943 524.344 314.708Z" fill="#F28482"/>
<path d="M504.656 318.293C502.496 318.466 500.219 318.494 498.287 317.513C497.505 317.116 496.719 316.256 497.099 315.467C497.356 314.932 498.018 314.751 498.604 314.654C503.585 313.831 509.841 314.524 514.499 316.501C511.984 317.971 507.586 318.058 504.656 318.293Z" fill="#F28482"/>
<path d="M520.194 308.272C521.599 306.622 523.189 304.992 525.248 304.32C526.081 304.048 527.246 304.099 527.535 304.927C527.731 305.488 527.391 306.083 527.045 306.566C524.106 310.67 519.192 314.604 514.5 316.501C515.24 313.681 518.288 310.508 520.194 308.272Z" fill="#F28482"/>
<path d="M508.806 324.728C507.401 326.378 505.811 328.008 503.752 328.68C502.919 328.952 501.754 328.901 501.465 328.074C501.269 327.513 501.609 326.917 501.955 326.434C504.894 322.33 509.808 318.396 514.5 316.5C513.761 319.319 510.712 322.491 508.806 324.728Z" fill="#F28482"/>
<path d="M522.729 322.194C524.379 323.599 526.009 325.189 526.681 327.248C526.953 328.082 526.902 329.246 526.074 329.536C525.514 329.731 524.918 329.391 524.435 329.045C520.331 326.106 516.397 321.192 514.5 316.5C517.32 317.241 520.492 320.288 522.729 322.194Z" fill="#F28482"/>
<path d="M506.272 310.806C504.623 309.401 502.993 307.811 502.321 305.752C502.049 304.919 502.1 303.754 502.927 303.465C503.488 303.269 504.084 303.609 504.567 303.955C508.671 306.894 512.605 311.808 514.501 316.5C511.682 315.76 508.51 312.712 506.272 310.806Z" fill="#F28482"/>
<path d="M516.687 316.499C516.687 317.707 515.709 318.686 514.501 318.686C513.292 318.686 512.314 317.708 512.314 316.499C512.314 315.292 513.292 314.313 514.501 314.313C515.709 314.313 516.687 315.292 516.687 316.499Z" fill="white"/>
</g>
<defs>
<clipPath id="clip0_441_5489">
<rect width="500" height="500" fill="white" transform="translate(75 75)"/>
</clipPath>
</defs>
</svg>
