<svg width="65" height="64" viewBox="0 0 65 64" fill="none" xmlns="http://www.w3.org/2000/svg">
<path d="M11.1672 39.7306C9.18602 37.7064 7.69143 35.2579 6.79667 32.5705C5.90191 29.8831 5.63046 27.0273 6.00287 24.2194C6.37529 21.4116 7.38179 18.7253 8.94616 16.3641C10.5105 14.0028 12.5917 12.0285 15.0321 10.5908C17.4725 9.15301 20.2081 8.28945 23.0317 8.06551C25.8553 7.84158 28.6928 8.26314 31.3293 9.29827C33.9658 10.3334 36.3322 11.9549 38.2492 14.0401C40.1662 16.1252 41.5836 18.6193 42.3939 21.3333H47.1672C49.7419 21.333 52.2485 22.1608 54.3166 23.6945C56.3846 25.2281 57.9046 27.3863 58.652 29.8501C59.3993 32.314 59.3344 34.9529 58.4668 37.377C57.5992 39.8011 55.9749 41.8819 53.8339 43.312" stroke="#2D6A4F" stroke-width="5.33333" stroke-linecap="round" stroke-linejoin="round"/>
<path d="M32.5 32V56" stroke="#2D6A4F" stroke-width="5.33333" stroke-linecap="round" stroke-linejoin="round"/>
<path d="M43.1663 42.6667L32.4997 32L21.833 42.6667" stroke="#2D6A4F" stroke-width="5.33333" stroke-linecap="round" stroke-linejoin="round"/>
</svg>
