<svg width="45" height="45" viewBox="0 0 45 45" fill="none" xmlns="http://www.w3.org/2000/svg">
<mask id="mask0_9_1996" style="mask-type:luminance" maskUnits="userSpaceOnUse" x="2" y="0" width="42" height="24">
<path d="M2.56689 0H43.7513V23.8171H2.56689V0Z" fill="white"/>
</mask>
<g mask="url(#mask0_9_1996)">
<path d="M21.6124 0C27.0992 0 32.0669 2.44105 35.6635 6.38661C36.2063 6.98138 36.716 7.60879 37.1927 8.26809C37.6693 8.92776 38.1095 9.6153 38.5135 10.3307C38.9173 11.0465 39.2826 11.785 39.6085 12.547C39.9347 13.309 40.2195 14.0889 40.4631 14.8868H43.7961L41.0921 19.3465L38.3882 23.8058L35.6843 19.3465L32.9803 14.8868H35.7474C35.3611 13.9389 34.8995 13.0376 34.3627 12.1825C33.8259 11.3274 33.2227 10.5328 32.5532 9.79865C29.753 6.72653 25.8846 4.82599 21.6124 4.82599C17.3399 4.82599 13.4715 6.72653 10.6717 9.79865C9.93369 10.6079 9.27659 11.4894 8.70105 12.4443C8.1255 13.3988 7.64253 14.4068 7.25248 15.4684H2.59229C2.82892 14.6144 3.11268 13.7791 3.44291 12.9632C3.77313 12.1473 4.14747 11.3567 4.56626 10.5914C4.98505 9.82578 5.44496 9.09131 5.94597 8.388C6.44698 7.68469 6.98543 7.01732 7.56131 6.38661C11.1577 2.44105 16.1257 0 21.6124 0Z" fill="#265741"/>
</g>
<mask id="mask1_9_1996" style="mask-type:luminance" maskUnits="userSpaceOnUse" x="0" y="21" width="42" height="24">
<path d="M0 21.1887H41.2416V45H0V21.1887Z" fill="white"/>
</mask>
<g mask="url(#mask1_9_1996)">
<path d="M22.1837 45.0048C16.6972 45.0048 11.7289 42.5637 8.13253 38.6181C7.58974 38.023 7.08004 37.396 6.60342 36.7363C6.12681 36.0766 5.68662 35.3891 5.28254 34.6737C4.87845 33.9583 4.51347 33.2194 4.18726 32.4574C3.86138 31.6958 3.57628 30.9155 3.33263 30.1176H0L2.70394 25.6579L5.40788 21.1986L8.11181 25.6579L10.8154 30.1176H8.04864C8.43502 31.0655 8.89659 31.9668 9.43337 32.8219C9.97014 33.677 10.5734 34.4716 11.2426 35.2057C14.0428 38.2779 17.9115 40.1784 22.1837 40.1784C26.4558 40.1784 30.3242 38.2779 33.1247 35.2057C33.8624 34.3965 34.5192 33.5149 35.095 32.5601C35.6706 31.6056 36.1535 30.5976 36.5436 29.536H41.2038C40.9668 30.39 40.6834 31.2253 40.3532 32.0412C40.023 32.8571 39.6483 33.6477 39.2295 34.4133C38.8107 35.1786 38.3508 35.9131 37.8498 36.6164C37.3488 37.3201 36.8103 37.9871 36.2348 38.6178C32.6384 42.5637 27.6701 45.0048 22.1837 45.0048Z" fill="#265741"/>
</g>
<mask id="mask2_9_1996" style="mask-type:luminance" maskUnits="userSpaceOnUse" x="23" y="25" width="22" height="5">
<path d="M23.3511 25.0316H45V29.6134H23.3511V25.0316Z" fill="white"/>
</mask>
<g mask="url(#mask2_9_1996)">
<mask id="mask3_9_1996" style="mask-type:luminance" maskUnits="userSpaceOnUse" x="23" y="25" width="22" height="5">
<path d="M25.4394 25.0316H42.899C44.0524 25.0316 44.9873 26.0572 44.9873 27.3223C44.9873 28.5878 44.0524 29.6134 42.899 29.6134H25.4394C24.2859 29.6134 23.3511 28.5878 23.3511 27.3223C23.3511 26.0572 24.2859 25.0316 25.4394 25.0316Z" fill="white"/>
</mask>
<g mask="url(#mask3_9_1996)">
<path d="M23.3511 25.0316H44.9836V29.6134H23.3511V25.0316Z" fill="#337456"/>
</g>
</g>
<mask id="mask4_9_1996" style="mask-type:luminance" maskUnits="userSpaceOnUse" x="26" y="12" width="7" height="13">
<path d="M26.3535 12.3986H32.5996V24.6056H26.3535V12.3986Z" fill="white"/>
</mask>
<g mask="url(#mask4_9_1996)">
<path d="M31.091 12.3986C31.232 13.1737 30.8788 13.9735 30.3701 14.5316C29.861 15.0912 29.2099 15.4619 28.5889 15.8605C27.9669 16.2591 27.3456 16.7137 26.9559 17.3778C26.616 17.9557 26.4769 18.648 26.4057 19.3304C26.3168 20.1595 26.3292 21.0286 26.5692 21.8085C26.7436 21.3381 26.9713 20.8881 27.2303 20.4679C27.739 19.6403 28.3657 18.9098 28.989 18.1834C29.7176 17.3353 30.4456 16.4882 31.1742 15.6397C30.4199 17.1901 29.251 18.4409 28.2634 19.8244C27.2757 21.209 26.4335 22.8616 26.5257 24.617C26.5993 23.7186 27.2637 23.0054 27.9846 22.5716C28.7056 22.1378 29.5134 21.8951 30.2233 21.4418C31.5666 20.5834 32.4697 18.948 32.5396 17.244C32.6107 15.5202 31.8942 13.8807 31.091 12.3986Z" fill="#40916C"/>
</g>
<mask id="mask5_9_1996" style="mask-type:luminance" maskUnits="userSpaceOnUse" x="21" y="13" width="6" height="10">
<path d="M21.2432 13.1156H26.0113V22.409H21.2432V13.1156Z" fill="white"/>
</mask>
<g mask="url(#mask5_9_1996)">
<mask id="mask6_9_1996" style="mask-type:luminance" maskUnits="userSpaceOnUse" x="21" y="13" width="5" height="10">
<path d="M22.3962 13.142C22.2896 13.7294 22.5573 14.3352 22.9427 14.7583C23.3284 15.1811 23.8217 15.4627 24.2926 15.7649C24.7635 16.0674 25.2335 16.411 25.5303 16.9145C25.788 17.3519 25.8926 17.8763 25.9467 18.394C26.0126 19.0207 26.0035 19.68 25.8214 20.2711C25.689 19.9154 25.5169 19.574 25.3204 19.2561C24.9347 18.6295 24.4604 18.0761 23.9881 17.5265C23.436 16.884 22.8848 16.2416 22.3327 15.5991C22.9039 16.7744 23.7893 17.7201 24.5383 18.7695C25.287 19.8179 25.9247 21.0698 25.8548 22.3994C25.799 21.7192 25.296 21.1794 24.7502 20.8501C24.2047 20.5212 23.5927 20.3382 23.054 19.9946C22.0362 19.3412 21.3517 18.1029 21.2986 16.8122C21.2451 15.5067 21.7885 14.2659 22.3962 13.142Z" fill="white"/>
</mask>
<g mask="url(#mask6_9_1996)">
<path d="M26.0126 13.142V22.3994H21.2451V13.142H26.0126Z" fill="url(#paint0_linear_9_1996)"/>
</g>
</g>
<mask id="mask7_9_1996" style="mask-type:luminance" maskUnits="userSpaceOnUse" x="15" y="31" width="20" height="9">
<path d="M15.3159 31.233H34.6532V39.5877H15.3159V31.233Z" fill="white"/>
</mask>
<g mask="url(#mask7_9_1996)">
<mask id="mask8_9_1996" style="mask-type:luminance" maskUnits="userSpaceOnUse" x="14" y="29" width="22" height="14">
<path d="M35.8842 36.2895L16.5177 42.1265L14.7192 34.9445L34.0856 29.1075L35.8842 36.2895Z" fill="white"/>
</mask>
<g mask="url(#mask8_9_1996)">
<mask id="mask9_9_1996" style="mask-type:luminance" maskUnits="userSpaceOnUse" x="14" y="29" width="22" height="14">
<path d="M35.8842 36.2895L16.5177 42.1265L14.7192 34.9445L34.0856 29.1075L35.8842 36.2895Z" fill="white"/>
</mask>
<g mask="url(#mask9_9_1996)">
<path d="M17.9154 34.9541C18.5338 35.4238 19.1879 35.8231 19.8777 36.1517C20.5676 36.4802 21.2802 36.7318 22.0151 36.9059C22.7769 37.0834 23.5469 37.178 24.3257 37.1894C25.1041 37.2008 25.8762 37.1285 26.6419 36.9734C27.434 36.8113 28.2044 36.566 28.9525 36.2375C29.7008 35.9093 30.4127 35.5041 31.0882 35.0223C31.7841 34.5236 32.4288 33.9559 33.0227 33.3186C33.617 32.681 34.1488 31.9865 34.6184 31.2344C34.2514 32.0844 33.8125 32.887 33.3018 33.6424C32.7908 34.3982 32.2179 35.0916 31.5829 35.7237C30.9268 36.375 30.2192 36.9499 29.4598 37.4486C28.7004 37.947 27.9043 38.3599 27.0711 38.6866C26.2128 39.0225 25.3327 39.263 24.4313 39.4082C23.5299 39.5531 22.6241 39.6 21.714 39.5487C20.7778 39.4959 19.8557 39.343 18.9469 39.091C18.0381 38.8388 17.1608 38.4919 16.3141 38.05L16.2851 38.0342C16.2369 38.0093 16.1901 37.9814 16.1444 37.9514C16.0986 37.9213 16.0541 37.889 16.0113 37.8538C15.9685 37.819 15.9274 37.782 15.888 37.7427C15.8482 37.7035 15.8108 37.6621 15.775 37.6188C15.7389 37.5752 15.7052 37.53 15.6734 37.4831C15.6417 37.4362 15.6123 37.3874 15.5848 37.3372C15.5574 37.2869 15.5324 37.2352 15.5096 37.1824C15.4866 37.1296 15.4665 37.0757 15.4485 37.0204C15.4304 36.9653 15.4151 36.9092 15.402 36.8528C15.389 36.7959 15.3786 36.7384 15.3709 36.6804C15.3633 36.6229 15.3579 36.5646 15.3552 36.5063C15.3529 36.4476 15.3529 36.3893 15.3556 36.3306C15.3582 36.2723 15.3633 36.214 15.3713 36.1561C15.379 36.0985 15.3893 36.0409 15.4024 35.9841C15.4154 35.9276 15.4308 35.8715 15.4488 35.8165C15.4669 35.7615 15.4873 35.7072 15.51 35.6544C15.533 35.6016 15.5581 35.5499 15.5855 35.4997C15.6129 35.4498 15.6427 35.4011 15.6744 35.3541C15.7062 35.3072 15.7399 35.2621 15.7757 35.2184C15.8118 35.1752 15.8492 35.1341 15.889 35.0945C15.9284 35.0553 15.9695 35.0182 16.0127 34.9834C16.0554 34.9486 16.0996 34.9163 16.1454 34.8862C16.1911 34.8562 16.2383 34.8287 16.2864 34.8034C16.3349 34.7784 16.384 34.7561 16.4341 34.7366C16.4843 34.7168 16.5354 34.6999 16.5872 34.6856C16.639 34.6713 16.6912 34.66 16.744 34.6515C16.7968 34.6431 16.8496 34.6372 16.9031 34.6343C16.9562 34.6314 17.0097 34.6317 17.0628 34.6343C17.116 34.6372 17.1691 34.6431 17.2219 34.6519C17.2747 34.6603 17.3269 34.6717 17.3787 34.686C17.4305 34.7003 17.4813 34.7172 17.5317 34.737C17.5819 34.7568 17.631 34.7792 17.6791 34.8041C17.7617 34.8474 17.8402 34.8972 17.9154 34.9541Z" fill="#337456"/>
</g>
</g>
</g>
<mask id="mask10_9_1996" style="mask-type:luminance" maskUnits="userSpaceOnUse" x="8" y="5" width="19" height="11">
<path d="M8.04297 5.60596H26.5247V15.9319H8.04297V5.60596Z" fill="white"/>
</mask>
<g mask="url(#mask10_9_1996)">
<mask id="mask11_9_1996" style="mask-type:luminance" maskUnits="userSpaceOnUse" x="6" y="2" width="22" height="16">
<path d="M27.2973 9.2179L8.83363 17.8886L6.16211 11.0411L24.6258 2.37073L27.2973 9.2179Z" fill="white"/>
</mask>
<g mask="url(#mask11_9_1996)">
<mask id="mask12_9_1996" style="mask-type:luminance" maskUnits="userSpaceOnUse" x="6" y="2" width="22" height="16">
<path d="M6.16943 11.0517L24.6331 2.38135L27.3046 9.22852L8.84095 17.8992L6.16943 11.0517Z" fill="white"/>
</mask>
<g mask="url(#mask12_9_1996)">
<path d="M24.1367 9.6956C23.4659 9.32231 22.7687 9.0242 22.0444 8.80162C21.3202 8.57904 20.5832 8.43639 19.8332 8.37296C19.0567 8.31062 18.282 8.33189 17.5092 8.43713C16.7365 8.542 15.9805 8.72828 15.2411 8.99633C14.4764 9.27501 13.7434 9.6329 13.0429 10.0696C12.3423 10.5067 11.6873 11.0142 11.0776 11.5925C10.4503 12.1898 9.88173 12.8488 9.37203 13.5686C8.86266 14.2887 8.4218 15.0562 8.0498 15.8714C8.30783 14.9744 8.6434 14.1138 9.05584 13.2891C9.46829 12.4645 9.94991 11.6919 10.5007 10.9713C11.0703 10.228 11.7 9.55296 12.3905 8.94572C13.081 8.33849 13.8187 7.81082 14.6038 7.3631C15.4123 6.90217 16.2542 6.53255 17.1296 6.2546C18.0049 5.97628 18.8963 5.79477 19.8044 5.71007C20.7383 5.62279 21.6708 5.63673 22.6023 5.75113C23.5338 5.86554 24.4462 6.07822 25.3396 6.38954L25.3704 6.40091C25.4212 6.41851 25.471 6.43904 25.5201 6.46214C25.5692 6.48488 25.617 6.51055 25.6638 6.53878C25.7106 6.56702 25.7561 6.59745 25.8002 6.63045C25.844 6.66382 25.8864 6.69902 25.9272 6.73679C25.9683 6.7742 26.0071 6.81416 26.0445 6.85597C26.082 6.89777 26.1171 6.94141 26.1505 6.98724C26.1839 7.03271 26.215 7.08001 26.2444 7.12915C26.2735 7.17829 26.3002 7.22852 26.3249 7.28059C26.3493 7.33266 26.3717 7.38583 26.3915 7.4401C26.4115 7.49437 26.4289 7.54937 26.4436 7.60584C26.4586 7.66195 26.471 7.71878 26.4807 7.77636C26.4907 7.83393 26.4977 7.89186 26.5024 7.95017C26.5071 8.00847 26.5091 8.06677 26.5084 8.12544C26.5078 8.18375 26.5048 8.24205 26.4987 8.30035C26.4931 8.35866 26.4847 8.41623 26.4737 8.47343C26.4627 8.53063 26.4489 8.58747 26.4329 8.64321C26.4169 8.69894 26.3985 8.75358 26.3774 8.80748C26.3564 8.86139 26.333 8.91382 26.3076 8.96516C26.2818 9.0165 26.2538 9.06637 26.2237 9.1144C26.1936 9.1628 26.1612 9.20937 26.1271 9.25411C26.0927 9.29921 26.0566 9.34175 26.0185 9.38282C25.9804 9.42389 25.9402 9.46239 25.8988 9.49906C25.857 9.53573 25.8139 9.56983 25.7691 9.6021C25.7247 9.634 25.6785 9.66333 25.6311 9.69047C25.584 9.71724 25.5355 9.74181 25.486 9.76344C25.4366 9.78544 25.3861 9.80451 25.335 9.82064C25.2835 9.83714 25.2317 9.85071 25.1795 9.86135C25.1271 9.87235 25.0742 9.88005 25.0211 9.88518C24.968 9.89031 24.9145 9.89251 24.8613 9.89178C24.8079 9.89105 24.7547 9.88775 24.7016 9.88115C24.6488 9.87491 24.596 9.86538 24.5438 9.85365C24.4917 9.84154 24.4402 9.82651 24.3894 9.80891C24.3025 9.77847 24.2183 9.74071 24.1367 9.6956Z" fill="#337456"/>
</g>
</g>
</g>
<path fill-rule="evenodd" clip-rule="evenodd" d="M22.4873 29.9676C21.3951 24.4101 17.8883 26.0558 14.4454 24.864C8.84632 22.9257 12.0439 17.1581 14.8471 13.8758C14.911 14.2033 14.9431 14.3676 14.9431 14.3676C15.5788 13.1674 15.8963 12.5679 15.8963 12.5679C14.7285 13.0475 14.1442 13.2884 14.1442 13.2884C14.3451 13.4138 14.4454 13.4765 14.4454 13.4765C11.453 16.1904 9.85203 18.8221 9.6428 21.3699C9.39647 24.3723 11.1097 25.9626 13.1034 26.6054C16.0804 27.5647 20.244 26.2817 22.4873 29.9687V29.9676Z" fill="#79B298"/>
<mask id="mask13_9_1996" style="mask-type:luminance" maskUnits="userSpaceOnUse" x="8" y="22" width="15" height="10">
<path d="M8.59033 22.5968H22.9229V31.7328H8.59033V22.5968Z" fill="white"/>
</mask>
<g mask="url(#mask13_9_1996)">
<path fill-rule="evenodd" clip-rule="evenodd" d="M22.92 31.7589C20.3718 25.0899 13.0989 30.0036 9.79372 24.911C9.50896 24.4479 9.27834 23.9866 9.10186 23.5257C9.35989 23.6932 9.48957 23.7772 9.48957 23.7772C9.03468 23.0358 8.80774 22.665 8.80774 22.665C8.66301 23.4454 8.59082 23.8355 8.59082 23.8355C8.75058 23.6602 8.83046 23.5733 8.83046 23.5733C9.64499 26.7089 11.125 28.5445 13.2681 29.0795C16.088 29.7832 21.0476 28.5849 22.921 31.76L22.92 31.7589Z" fill="#337456"/>
</g>
<mask id="mask14_9_1996" style="mask-type:luminance" maskUnits="userSpaceOnUse" x="16" y="12" width="6" height="15">
<path d="M16.2568 12.2848H21.134V26.3517H16.2568V12.2848Z" fill="white"/>
</mask>
<g mask="url(#mask14_9_1996)">
<path fill-rule="evenodd" clip-rule="evenodd" d="M21.1047 21.401V26.278C20.8805 26.0778 20.6298 25.9007 20.349 25.7503C20.2775 25.7126 20.206 25.6766 20.1328 25.6425V20.3919L19.5629 21.0101V25.4199C19.2457 25.3176 18.9195 25.2432 18.591 25.1849V21.353H18.5866V16.9634L17.2835 18.275V25.003C16.9583 24.9645 16.6344 24.9249 16.3115 24.8769V12.2848L18.5866 14.717V16.9634L19.5619 18.0869H19.5629V18.0887L20.1328 18.7455V20.3912L21.1047 21.401Z" fill="#337456"/>
</g>
<path fill-rule="evenodd" clip-rule="evenodd" d="M12.9941 21.4009V23.6645C13.2926 23.8944 13.6238 24.0825 13.9661 24.2376V20.3911L14.536 21.0089V24.4635L14.558 24.4708C14.8722 24.5797 15.1894 24.6637 15.5079 24.7326V21.351H15.5122V16.964L14.537 18.0875H14.536V18.0894L13.9661 18.7461V20.3918L12.9941 21.402V21.4009Z" fill="#337456"/>
<defs>
<linearGradient id="paint0_linear_9_1996" x1="23.6395" y1="13.142" x2="23.6395" y2="22.3995" gradientUnits="userSpaceOnUse">
<stop stop-color="#275942"/>
<stop offset="0.5" stop-color="#275943"/>
<stop offset="1" stop-color="#275A43"/>
</linearGradient>
</defs>
</svg>
