<svg width="84" height="84" viewBox="0 0 84 84" fill="none" xmlns="http://www.w3.org/2000/svg">
<mask id="mask0_424_5125" style="mask-type:luminance" maskUnits="userSpaceOnUse" x="4" y="0" width="78" height="45">
<path d="M4.78369 0H81.5335V44.3848H4.78369V0Z" fill="white"/>
</mask>
<g mask="url(#mask0_424_5125)">
<path d="M40.2761 0C50.501 0 59.7586 4.54905 66.4612 11.9019C67.4728 13.0103 68.4226 14.1795 69.3108 15.4081C70.199 16.6375 71.0194 17.9187 71.7724 19.252C72.5248 20.5858 73.2056 21.9621 73.8129 23.3821C74.4208 24.8021 74.9515 26.2556 75.4056 27.7425H81.6168L76.5778 36.0534L71.5388 44.3636L66.4999 36.0534L61.4609 27.7425H66.6176C65.8976 25.9761 65.0374 24.2964 64.0371 22.7029C63.0367 21.1093 61.9125 19.6285 60.6649 18.2604C55.4465 12.5353 48.2375 8.99354 40.2761 8.99354C32.314 8.99354 25.105 12.5353 19.8873 18.2604C18.512 19.7686 17.2875 21.4113 16.2149 23.1908C15.1423 24.9695 14.2423 26.848 13.5154 28.8263H4.83081C5.2718 27.2348 5.80061 25.6782 6.416 24.1577C7.03139 22.6373 7.72899 21.164 8.50944 19.7378C9.28989 18.311 10.1469 16.9422 11.0806 15.6316C12.0143 14.3209 13.0177 13.0772 14.0909 11.9019C20.7929 4.54905 30.0512 0 40.2761 0Z" fill="#FDFAF1"/>
</g>
<mask id="mask1_424_5125" style="mask-type:luminance" maskUnits="userSpaceOnUse" x="0" y="39" width="77" height="45">
<path d="M0 39.4866H76.8563V83.8604H0V39.4866Z" fill="white"/>
</mask>
<g mask="url(#mask1_424_5125)">
<path d="M41.3412 83.8693C31.1169 83.8693 21.858 79.3203 15.156 71.9674C14.1445 70.8584 13.1946 69.6898 12.3064 68.4605C11.4182 67.2312 10.5979 65.9499 9.84484 64.6167C9.0918 63.2835 8.41163 61.9065 7.80372 60.4865C7.19643 59.0672 6.66512 57.613 6.21106 56.1261H0.000488281L5.03945 47.8152L10.0784 39.505L15.1174 47.8152L20.1557 56.1261H14.9997C15.7197 57.8925 16.5799 59.5722 17.5802 61.1658C18.5805 62.7593 19.7048 64.2401 20.9517 65.6082C26.1701 71.3333 33.3797 74.8751 41.3412 74.8751C49.3026 74.8751 56.5116 71.3333 61.7306 65.6082C63.1052 64.1001 64.3292 62.4573 65.4024 60.6779C66.4749 58.8991 67.375 57.0206 68.1019 55.0423H76.7864C76.3448 56.6338 75.8166 58.1905 75.2012 59.7109C74.5859 61.2314 73.8876 62.7047 73.1072 64.1315C72.3267 65.5576 71.4697 66.9264 70.536 68.237C69.6023 69.5484 68.5989 70.7914 67.5263 71.9668C60.8243 79.3203 51.5655 83.8693 41.3412 83.8693Z" fill="#FDFAF1"/>
</g>
<mask id="mask2_424_5125" style="mask-type:luminance" maskUnits="userSpaceOnUse" x="43" y="46" width="41" height="10">
<path d="M43.5164 46.6481H83.8605V55.1865H43.5164V46.6481Z" fill="white"/>
</mask>
<g mask="url(#mask2_424_5125)">
<mask id="mask3_424_5125" style="mask-type:luminance" maskUnits="userSpaceOnUse" x="43" y="46" width="41" height="10">
<path d="M47.408 46.6481H79.9451C82.0946 46.6481 83.8368 48.5594 83.8368 50.9169C83.8368 53.2752 82.0946 55.1865 79.9451 55.1865H47.408C45.2585 55.1865 43.5164 53.2752 43.5164 50.9169C43.5164 48.5594 45.2585 46.6481 47.408 46.6481Z" fill="white"/>
</mask>
<g mask="url(#mask3_424_5125)">
<path d="M43.5164 46.6481H83.8299V55.1865H43.5164V46.6481Z" fill="#FDFAF1"/>
</g>
</g>
<mask id="mask4_424_5125" style="mask-type:luminance" maskUnits="userSpaceOnUse" x="49" y="23" width="12" height="23">
<path d="M49.1116 23.1055H60.7516V45.8541H49.1116V23.1055Z" fill="white"/>
</mask>
<g mask="url(#mask4_424_5125)">
<path d="M57.9401 23.1055C58.203 24.5501 57.5446 26.0404 56.5966 27.0805C55.648 28.1233 54.4347 28.8142 53.2774 29.557C52.1182 30.2998 50.9603 31.1471 50.2341 32.3846C49.6006 33.4616 49.3415 34.7518 49.2088 36.0235C49.0432 37.5685 49.0662 39.1881 49.5134 40.6415C49.8385 39.7648 50.2627 38.9263 50.7454 38.1432C51.6934 36.6009 52.8613 35.2397 54.0229 33.886C55.3808 32.3054 56.7374 30.7268 58.0952 29.1456C56.6894 32.0348 54.5113 34.3657 52.6707 36.9439C50.8301 39.5243 49.2605 42.6041 49.4324 45.8753C49.5695 44.2011 50.8077 42.872 52.1512 42.0636C53.4948 41.2552 55.0002 40.8028 56.3232 39.9582C58.8265 38.3585 60.5094 35.3107 60.6396 32.1352C60.7723 28.9228 59.4369 25.8676 57.9401 23.1055Z" fill="#FDFAF1"/>
</g>
<mask id="mask5_424_5125" style="mask-type:luminance" maskUnits="userSpaceOnUse" x="39" y="24" width="10" height="18">
<path d="M39.5879 24.4418H48.4737V41.7605H39.5879V24.4418Z" fill="white"/>
</mask>
<g mask="url(#mask5_424_5125)">
<mask id="mask6_424_5125" style="mask-type:luminance" maskUnits="userSpaceOnUse" x="39" y="24" width="10" height="18">
<path d="M41.7368 24.491C41.5381 25.5857 42.0371 26.7146 42.7552 27.5032C43.474 28.2911 44.3934 28.8159 45.271 29.379C46.1486 29.9427 47.0243 30.583 47.5774 31.5212C48.0577 32.3365 48.2526 33.3137 48.3535 34.2786C48.4762 35.4464 48.4594 36.6751 48.1199 37.7766C47.8733 37.1138 47.5525 36.4776 47.1863 35.8851C46.4675 34.7173 45.5836 33.6861 44.7035 32.6618C43.6746 31.4645 42.6475 30.2673 41.6185 29.0701C42.683 31.2602 44.3329 33.0226 45.7288 34.9783C47.124 36.932 48.3124 39.2649 48.1822 41.7428C48.0782 40.4752 47.1408 39.4693 46.1237 38.8556C45.1072 38.2427 43.9667 37.9017 42.9626 37.2614C41.066 36.0436 39.7904 33.736 39.6914 31.3306C39.5917 28.8979 40.6045 26.5854 41.7368 24.491Z" fill="white"/>
</mask>
<g mask="url(#mask6_424_5125)">
<path d="M48.4761 24.491V41.7428H39.5916V24.491H48.4761Z" fill="#FDFAF1"/>
</g>
</g>
<mask id="mask7_424_5125" style="mask-type:luminance" maskUnits="userSpaceOnUse" x="28" y="58" width="37" height="16">
<path d="M28.5422 58.2048H64.5786V73.7742H28.5422V58.2048Z" fill="white"/>
</mask>
<g mask="url(#mask7_424_5125)">
<mask id="mask8_424_5125" style="mask-type:luminance" maskUnits="userSpaceOnUse" x="27" y="54" width="40" height="25">
<path d="M66.8724 67.6278L30.7818 78.5054L27.4302 65.1213L63.5207 54.2438L66.8724 67.6278Z" fill="white"/>
</mask>
<g mask="url(#mask8_424_5125)">
<mask id="mask9_424_5125" style="mask-type:luminance" maskUnits="userSpaceOnUse" x="27" y="54" width="40" height="25">
<path d="M66.8724 67.6278L30.7818 78.5054L27.4302 65.1213L63.5207 54.2438L66.8724 67.6278Z" fill="white"/>
</mask>
<g mask="url(#mask9_424_5125)">
<path d="M33.3866 65.1392C34.5389 66.0145 35.7579 66.7587 37.0435 67.371C38.3291 67.9832 39.657 68.452 41.0267 68.7766C42.4462 69.1074 43.8813 69.2837 45.3325 69.3048C46.7832 69.326 48.222 69.1914 49.649 68.9024C51.1252 68.6003 52.5609 68.1432 53.9548 67.5309C55.3494 66.9193 56.6761 66.1642 57.9349 65.2663C59.2317 64.3369 60.4332 63.2791 61.54 62.0914C62.6475 60.9031 63.6385 59.6088 64.5136 58.2073C63.8297 59.7913 63.0119 61.2871 62.0601 62.6948C61.1078 64.1032 60.0402 65.3954 58.8568 66.5735C57.6341 67.7871 56.3155 68.8586 54.9003 69.788C53.4852 70.7166 52.0015 71.4861 50.4487 72.095C48.8492 72.7209 47.2092 73.1692 45.5293 73.4398C43.8495 73.7097 42.1615 73.7972 40.4655 73.7015C38.7208 73.6031 37.0024 73.3181 35.3088 72.8487C33.6152 72.3785 31.9802 71.7321 30.4025 70.9087L30.3483 70.8793C30.2586 70.8328 30.1714 70.7809 30.0861 70.7248C30.0007 70.6688 29.9179 70.6087 29.8382 70.5431C29.7585 70.4782 29.6818 70.4091 29.6083 70.336C29.5342 70.2629 29.4645 70.1857 29.3978 70.105C29.3305 70.0237 29.2676 69.9397 29.2085 69.8522C29.1493 69.7647 29.0945 69.6739 29.0434 69.5802C28.9923 69.4866 28.9456 69.3903 28.9033 69.2919C28.8603 69.1935 28.8229 69.093 28.7893 68.9898C28.7556 68.8873 28.727 68.7828 28.7027 68.6775C28.6784 68.5716 28.6591 68.4643 28.6448 68.3564C28.6304 68.2491 28.6205 68.1404 28.6155 68.0318C28.6111 67.9224 28.6111 67.8138 28.6161 67.7044C28.6211 67.5958 28.6304 67.4871 28.6454 67.3792C28.6597 67.2719 28.679 67.1646 28.7033 67.0587C28.7276 66.9534 28.7563 66.8489 28.7899 66.7464C28.8235 66.6439 28.8615 66.5428 28.9039 66.4443C28.9469 66.3459 28.9936 66.2496 29.0447 66.156C29.0957 66.063 29.1512 65.9722 29.2103 65.8847C29.2695 65.7972 29.3324 65.7132 29.3991 65.6318C29.4663 65.5512 29.5361 65.4747 29.6102 65.4009C29.6837 65.3278 29.7603 65.2587 29.8407 65.1938C29.9204 65.1289 30.0026 65.0688 30.0879 65.0127C30.1733 64.9567 30.2611 64.9055 30.3508 64.8583C30.4411 64.8118 30.5327 64.7701 30.6261 64.7339C30.7195 64.697 30.8148 64.6656 30.9114 64.6389C31.0079 64.6123 31.1051 64.5911 31.2035 64.5754C31.3019 64.5597 31.4003 64.5487 31.5 64.5433C31.599 64.5378 31.6987 64.5385 31.7977 64.5433C31.8967 64.5487 31.9958 64.5597 32.0942 64.5761C32.1926 64.5918 32.2898 64.613 32.3863 64.6396C32.4829 64.6663 32.5775 64.6977 32.6716 64.7346C32.765 64.7715 32.8566 64.8132 32.9463 64.8597C33.1001 64.9403 33.2465 65.0332 33.3866 65.1392Z" fill="#FDFAF1"/>
</g>
</g>
</g>
<mask id="mask10_424_5125" style="mask-type:luminance" maskUnits="userSpaceOnUse" x="14" y="10" width="36" height="20">
<path d="M14.9885 10.447H49.4304V29.6901H14.9885V10.447Z" fill="white"/>
</mask>
<g mask="url(#mask10_424_5125)">
<mask id="mask11_424_5125" style="mask-type:luminance" maskUnits="userSpaceOnUse" x="11" y="4" width="40" height="30">
<path d="M50.8699 17.1781L16.4617 33.3366L11.4832 20.5757L45.8914 4.41797L50.8699 17.1781Z" fill="white"/>
</mask>
<g mask="url(#mask11_424_5125)">
<mask id="mask12_424_5125" style="mask-type:luminance" maskUnits="userSpaceOnUse" x="11" y="4" width="40" height="30">
<path d="M11.4971 20.5955L45.9053 4.43774L50.8838 17.1979L16.4756 33.3563L11.4971 20.5955Z" fill="white"/>
</mask>
<g mask="url(#mask12_424_5125)">
<path d="M44.9802 18.0684C43.7302 17.3727 42.4309 16.8172 41.0811 16.4024C39.7314 15.9876 38.358 15.7218 36.9603 15.6035C35.5134 15.4874 34.0696 15.527 32.6295 15.7231C31.1894 15.9186 29.7805 16.2657 28.4027 16.7652C26.9776 17.2846 25.6117 17.9515 24.3062 18.7654C23.0007 19.5799 21.7798 20.5257 20.6437 21.6033C19.4746 22.7165 18.4151 23.9445 17.4653 25.2859C16.516 26.628 15.6945 28.0582 15.0012 29.5773C15.4821 27.9058 16.1074 26.302 16.876 24.7652C17.6447 23.2283 18.5422 21.7885 19.5687 20.4457C20.63 19.0606 21.8035 17.8025 23.0903 16.6709C24.3772 15.5393 25.7518 14.556 27.2149 13.7216C28.7217 12.8626 30.2906 12.1738 31.9219 11.6558C33.5532 11.1372 35.2144 10.7989 36.9067 10.6411C38.647 10.4784 40.3848 10.5044 42.1207 10.7176C43.8566 10.9308 45.557 11.3271 47.2219 11.9073L47.2792 11.9285C47.3739 11.9613 47.4667 11.9996 47.5583 12.0426C47.6498 12.085 47.7389 12.1328 47.8261 12.1854C47.9133 12.238 47.998 12.2948 48.0802 12.3563C48.1618 12.4184 48.2409 12.484 48.3169 12.5544C48.3935 12.6241 48.4658 12.6986 48.5356 12.7765C48.6053 12.8544 48.6707 12.9357 48.733 13.0212C48.7953 13.1059 48.8532 13.194 48.908 13.2856C48.9622 13.3772 49.012 13.4708 49.0581 13.5678C49.1036 13.6649 49.1453 13.764 49.1821 13.8651C49.2195 13.9662 49.2518 14.0687 49.2793 14.174C49.3073 14.2785 49.3303 14.3844 49.3484 14.4917C49.3671 14.599 49.3802 14.707 49.3889 14.8156C49.3976 14.9243 49.4013 15.0329 49.4001 15.1423C49.3988 15.2509 49.3932 15.3596 49.382 15.4682C49.3714 15.5769 49.3559 15.6842 49.3353 15.7908C49.3148 15.8974 49.2892 16.0033 49.2593 16.1072C49.2294 16.211 49.1952 16.3128 49.1559 16.4133C49.1167 16.5138 49.0731 16.6115 49.0257 16.7071C48.9778 16.8028 48.9255 16.8957 48.8694 16.9853C48.8133 17.0755 48.7529 17.1622 48.6894 17.2456C48.6252 17.3297 48.558 17.4089 48.487 17.4855C48.416 17.562 48.3412 17.6338 48.264 17.7021C48.1861 17.7704 48.1058 17.834 48.0223 17.8941C47.9395 17.9536 47.8535 18.0082 47.7651 18.0588C47.6772 18.1087 47.5869 18.1545 47.4947 18.1948C47.4026 18.2358 47.3085 18.2713 47.2132 18.3014C47.1173 18.3321 47.0207 18.3574 46.9236 18.3772C46.8258 18.3977 46.7274 18.4121 46.6283 18.4217C46.5293 18.4312 46.4297 18.4353 46.3306 18.434C46.231 18.4326 46.1319 18.4264 46.0329 18.4141C45.9345 18.4025 45.8361 18.3848 45.7389 18.3629C45.6417 18.3403 45.5458 18.3123 45.4511 18.2795C45.2892 18.2228 45.1322 18.1524 44.9802 18.0684Z" fill="#FDFAF1"/>
</g>
</g>
</g>
<path fill-rule="evenodd" clip-rule="evenodd" d="M41.907 55.8465C39.8715 45.4897 33.3364 48.5566 26.9203 46.3357C16.4861 42.7235 22.445 31.9752 27.669 25.8585C27.7879 26.4688 27.8477 26.7749 27.8477 26.7749C29.0324 24.5383 29.6241 23.421 29.6241 23.421C27.4478 24.3148 26.3591 24.7638 26.3591 24.7638C26.7334 24.9975 26.9203 25.1144 26.9203 25.1144C21.3438 30.1718 18.3603 35.0762 17.9704 39.8241C17.5113 45.4193 20.7041 48.383 24.4195 49.5809C29.9673 51.3686 37.7263 48.9775 41.907 55.8486V55.8465Z" fill="#FDFAF1"/>
<mask id="mask13_424_5125" style="mask-type:luminance" maskUnits="userSpaceOnUse" x="16" y="42" width="27" height="18">
<path d="M16.0085 42.1106H42.7182V59.1362H16.0085V42.1106Z" fill="white"/>
</mask>
<g mask="url(#mask13_424_5125)">
<path fill-rule="evenodd" clip-rule="evenodd" d="M42.7134 59.1848C37.9647 46.7568 24.4112 55.9136 18.2517 46.4233C17.721 45.5602 17.2912 44.7006 16.9624 43.8416C17.4432 44.1539 17.6849 44.3104 17.6849 44.3104C16.8372 42.9287 16.4142 42.2378 16.4142 42.2378C16.1445 43.692 16.01 44.419 16.01 44.419C16.3077 44.0924 16.4566 43.9304 16.4566 43.9304C17.9745 49.7738 20.7326 53.1946 24.7264 54.1916C29.9815 55.5029 39.2241 53.2698 42.7153 59.1869L42.7134 59.1848Z" fill="#FDFAF1"/>
</g>
<mask id="mask14_424_5125" style="mask-type:luminance" maskUnits="userSpaceOnUse" x="30" y="22" width="10" height="28">
<path d="M30.2961 22.8936H39.385V49.1081H30.2961V22.8936Z" fill="white"/>
</mask>
<g mask="url(#mask14_424_5125)">
<path fill-rule="evenodd" clip-rule="evenodd" d="M39.3309 39.8823V48.9708C38.913 48.5977 38.4458 48.2676 37.9226 47.9874C37.7893 47.9171 37.656 47.8501 37.5196 47.7865V38.0017L36.4576 39.1538V47.3718C35.8666 47.1811 35.2586 47.0424 34.6464 46.9337V39.7927H34.6383V31.6124L32.2097 34.0567V46.5948C31.6037 46.523 31.0001 46.4492 30.3984 46.3597V22.8936L34.6383 27.4262V31.6124L36.4558 33.7062H36.4576V33.7096L37.5196 34.9335V38.0003L39.3309 39.8823Z" fill="#FDFAF1"/>
</g>
<path fill-rule="evenodd" clip-rule="evenodd" d="M24.2158 39.882V44.1003C24.772 44.5288 25.3893 44.8794 26.0271 45.1684V38.0001L27.0891 39.1515V45.5894L27.1302 45.603C27.7157 45.806 28.3068 45.9625 28.9004 46.0909V39.7891H28.9085V31.6135L27.091 33.7073H27.0891V33.7107L26.0271 34.9346V38.0015L24.2158 39.8841V39.882Z" fill="#FDFAF1"/>
</svg>
