<svg width="178" height="100" viewBox="0 0 178 100" fill="none" xmlns="http://www.w3.org/2000/svg">
<mask id="mask0_232_331" style="mask-type:luminance" maskUnits="userSpaceOnUse" x="4" y="8" width="78" height="45">
<path d="M4.78357 8H81.5334V52.3848H4.78357V8Z" fill="white"/>
</mask>
<g mask="url(#mask0_232_331)">
<path d="M40.2762 8C50.5011 8 59.7587 12.549 66.4613 19.9019C67.4729 21.0103 68.4227 22.1795 69.3109 23.4081C70.1991 24.6375 71.0195 25.9187 71.7725 27.252C72.5249 28.5858 73.2057 29.9621 73.813 31.3821C74.4209 32.8021 74.9516 34.2556 75.4057 35.7425H81.6168L76.5779 44.0534L71.5389 52.3636L66.5 44.0534L61.461 35.7425H66.6177C65.8976 33.9761 65.0375 32.2964 64.0372 30.7029C63.0368 29.1093 61.9126 27.6285 60.665 26.2604C55.4466 20.5353 48.2376 16.9935 40.2762 16.9935C32.3141 16.9935 25.1051 20.5353 19.8874 26.2604C18.5121 27.7686 17.2875 29.4113 16.215 31.1908C15.1424 32.9695 14.2424 34.848 13.5155 36.8263H4.8309C5.27189 35.2348 5.8007 33.6782 6.41609 32.1577C7.03148 30.6373 7.72908 29.164 8.50953 27.7378C9.28998 26.311 10.147 24.9422 11.0807 23.6316C12.0144 22.3209 13.0178 21.0772 14.091 19.9019C20.793 12.549 30.0513 8 40.2762 8Z" fill="#FDFAF1"/>
</g>
<mask id="mask1_232_331" style="mask-type:luminance" maskUnits="userSpaceOnUse" x="0" y="47" width="77" height="45">
<path d="M0 47.4866H76.8563V91.8604H0V47.4866Z" fill="white"/>
</mask>
<g mask="url(#mask1_232_331)">
<path d="M41.3411 91.8689C31.1168 91.8689 21.858 87.3199 15.156 79.9671C14.1444 78.858 13.1946 77.6895 12.3064 76.4601C11.4182 75.2308 10.5979 73.9495 9.84481 72.6163C9.09177 71.2831 8.4116 69.9061 7.80369 68.4861C7.1964 67.0668 6.66509 65.6127 6.21103 64.1257H0.000457764L5.03942 55.8148L10.0784 47.5046L15.1173 55.8148L20.1557 64.1257H14.9996C15.7197 65.8922 16.5798 67.5718 17.5801 69.1654C18.5805 70.759 19.7047 72.2398 20.9517 73.6078C26.1701 79.3329 33.3797 82.8747 41.3411 82.8747C49.3026 82.8747 56.5116 79.3329 61.7306 73.6078C63.1052 72.0997 64.3291 70.4569 65.4023 68.6775C66.4749 66.8987 67.3749 65.0202 68.1018 63.0419H76.7864C76.3448 64.6334 75.8166 66.1901 75.2012 67.7105C74.5858 69.231 73.8876 70.7043 73.1071 72.1311C72.3267 73.5573 71.4696 74.926 70.536 76.2367C69.6023 77.548 68.5989 78.791 67.5263 79.9664C60.8243 87.3199 51.5654 91.8689 41.3411 91.8689Z" fill="#FDFAF1"/>
</g>
<mask id="mask2_232_331" style="mask-type:luminance" maskUnits="userSpaceOnUse" x="43" y="54" width="41" height="10">
<path d="M43.5162 54.6482H83.8603V63.1866H43.5162V54.6482Z" fill="white"/>
</mask>
<g mask="url(#mask2_232_331)">
<mask id="mask3_232_331" style="mask-type:luminance" maskUnits="userSpaceOnUse" x="43" y="54" width="41" height="10">
<path d="M47.4079 54.6482H79.945C82.0945 54.6482 83.8367 56.5595 83.8367 58.9171C83.8367 61.2753 82.0945 63.1866 79.945 63.1866H47.4079C45.2584 63.1866 43.5162 61.2753 43.5162 58.9171C43.5162 56.5595 45.2584 54.6482 47.4079 54.6482Z" fill="white"/>
</mask>
<g mask="url(#mask3_232_331)">
<path d="M43.5162 54.6482H83.8298V63.1866H43.5162V54.6482Z" fill="#FDFAF1"/>
</g>
</g>
<mask id="mask4_232_331" style="mask-type:luminance" maskUnits="userSpaceOnUse" x="49" y="31" width="12" height="23">
<path d="M49.1115 31.1052H60.7515V53.8539H49.1115V31.1052Z" fill="white"/>
</mask>
<g mask="url(#mask4_232_331)">
<path d="M57.9401 31.1052C58.203 32.5498 57.5446 34.0402 56.5966 35.0803C55.648 36.123 54.4347 36.8139 53.2774 37.5567C52.1182 38.2995 50.9603 39.1469 50.2341 40.3844C49.6006 41.4614 49.3415 42.7515 49.2088 44.0232C49.0432 45.5683 49.0662 47.1878 49.5134 48.6413C49.8385 47.7646 50.2627 46.9261 50.7454 46.143C51.6934 44.6007 52.8613 43.2394 54.0229 41.8857C55.3808 40.3051 56.7374 38.7266 58.0952 37.1453C56.6894 40.0345 54.5113 42.3654 52.6707 44.9437C50.8301 47.524 49.2605 50.6039 49.4324 53.875C49.5695 52.2008 50.8077 50.8717 52.1512 50.0633C53.4948 49.2549 55.0002 48.8026 56.3232 47.9579C58.8265 46.3582 60.5094 43.3105 60.6396 40.135C60.7723 36.9226 59.4369 33.8673 57.9401 31.1052Z" fill="#FDFAF1"/>
</g>
<mask id="mask5_232_331" style="mask-type:luminance" maskUnits="userSpaceOnUse" x="39" y="32" width="10" height="18">
<path d="M39.588 32.4419H48.4738V49.7607H39.588V32.4419Z" fill="white"/>
</mask>
<g mask="url(#mask5_232_331)">
<mask id="mask6_232_331" style="mask-type:luminance" maskUnits="userSpaceOnUse" x="39" y="32" width="10" height="18">
<path d="M41.7367 32.4912C41.5381 33.5859 42.037 34.7148 42.7551 35.5034C43.4739 36.2913 44.3933 36.8161 45.2709 37.3792C46.1485 37.943 47.0242 38.5833 47.5773 39.5215C48.0576 40.3367 48.2525 41.3139 48.3534 42.2788C48.4761 43.4466 48.4593 44.6753 48.1199 45.7769C47.8732 45.114 47.5524 44.4778 47.1862 43.8853C46.4674 42.7175 45.5836 41.6863 44.7034 40.662C43.6745 39.4648 42.6474 38.2675 41.6184 37.0703C42.6829 39.2605 44.3328 41.0228 45.7287 42.9785C47.1239 44.9322 48.3123 47.2652 48.1821 49.743C48.0781 48.4754 47.1407 47.4695 46.1236 46.8559C45.1071 46.2429 43.9666 45.9019 42.9625 45.2616C41.0659 44.0439 39.7903 41.7362 39.6913 39.3308C39.5916 36.8981 40.6044 34.5857 41.7367 32.4912Z" fill="white"/>
</mask>
<g mask="url(#mask6_232_331)">
<path d="M48.4762 32.4912V49.743H39.5917V32.4912H48.4762Z" fill="#FDFAF1"/>
</g>
</g>
<mask id="mask7_232_331" style="mask-type:luminance" maskUnits="userSpaceOnUse" x="28" y="66" width="37" height="16">
<path d="M28.5422 66.2046H64.5786V81.774H28.5422V66.2046Z" fill="white"/>
</mask>
<g mask="url(#mask7_232_331)">
<mask id="mask8_232_331" style="mask-type:luminance" maskUnits="userSpaceOnUse" x="27" y="62" width="40" height="25">
<path d="M66.8726 75.6277L30.7821 86.5052L27.4305 73.1212L63.521 62.2437L66.8726 75.6277Z" fill="white"/>
</mask>
<g mask="url(#mask8_232_331)">
<mask id="mask9_232_331" style="mask-type:luminance" maskUnits="userSpaceOnUse" x="27" y="62" width="40" height="25">
<path d="M66.8726 75.6277L30.7821 86.5052L27.4305 73.1212L63.521 62.2437L66.8726 75.6277Z" fill="white"/>
</mask>
<g mask="url(#mask9_232_331)">
<path d="M33.3871 73.1387C34.5394 74.014 35.7583 74.7582 37.0439 75.3705C38.3295 75.9828 39.6575 76.4515 41.0271 76.7761C42.4466 77.1069 43.8817 77.2832 45.333 77.3044C46.7836 77.3255 48.2224 77.1909 49.6494 76.9019C51.1256 76.5998 52.5613 76.1427 53.9553 75.5304C55.3499 74.9188 56.6766 74.1637 57.9354 73.2658C59.2322 72.3364 60.4337 71.2786 61.5405 70.0909C62.648 68.9026 63.6389 67.6083 64.5141 66.2068C63.8302 67.7908 63.0123 69.2866 62.0606 70.6943C61.1082 72.1027 60.0406 73.3949 58.8572 74.573C57.6345 75.7866 56.3159 76.8581 54.9008 77.7875C53.4856 78.7162 52.002 79.4856 50.4492 80.0945C48.8497 80.7204 47.2097 81.1687 45.5298 81.4393C43.8499 81.7092 42.162 81.7967 40.4659 81.701C38.7213 81.6026 37.0028 81.3177 35.3092 80.8482C33.6157 80.3781 31.9807 79.7316 30.403 78.9082L30.3488 78.8788C30.2591 78.8323 30.1719 78.7804 30.0865 78.7244C30.0012 78.6683 29.9184 78.6082 29.8386 78.5426C29.7589 78.4777 29.6823 78.4086 29.6088 78.3355C29.5347 78.2624 29.4649 78.1852 29.3983 78.1046C29.331 78.0232 29.2681 77.9392 29.2089 77.8517C29.1498 77.7642 29.0949 77.6734 29.0439 77.5797C28.9928 77.4861 28.9461 77.3898 28.9037 77.2914C28.8607 77.193 28.8234 77.0925 28.7897 76.9893C28.7561 76.8868 28.7275 76.7823 28.7032 76.677C28.6789 76.5711 28.6596 76.4638 28.6452 76.3559C28.6309 76.2486 28.6209 76.1399 28.616 76.0313C28.6116 75.9219 28.6116 75.8133 28.6166 75.704C28.6216 75.5953 28.6309 75.4866 28.6459 75.3787C28.6602 75.2714 28.6795 75.1641 28.7038 75.0582C28.7281 74.953 28.7567 74.8484 28.7904 74.7459C28.824 74.6434 28.862 74.5423 28.9043 74.4439C28.9473 74.3455 28.994 74.2491 29.0451 74.1555C29.0962 74.0626 29.1516 73.9717 29.2108 73.8842C29.27 73.7967 29.3329 73.7127 29.3995 73.6314C29.4668 73.5507 29.5366 73.4742 29.6107 73.4004C29.6842 73.3273 29.7608 73.2583 29.8411 73.1933C29.9209 73.1284 30.0031 73.0683 30.0884 73.0122C30.1737 72.9562 30.2616 72.905 30.3513 72.8578C30.4416 72.8113 30.5331 72.7697 30.6266 72.7334C30.72 72.6965 30.8153 72.6651 30.9118 72.6385C31.0084 72.6118 31.1055 72.5906 31.204 72.5749C31.3024 72.5592 31.4008 72.5483 31.5004 72.5428C31.5995 72.5373 31.6991 72.538 31.7982 72.5428C31.8972 72.5483 31.9962 72.5592 32.0946 72.5756C32.1931 72.5913 32.2902 72.6125 32.3868 72.6391C32.4833 72.6658 32.578 72.6972 32.672 72.7341C32.7655 72.771 32.857 72.8127 32.9467 72.8592C33.1006 72.9398 33.2469 73.0327 33.3871 73.1387Z" fill="#FDFAF1"/>
</g>
</g>
</g>
<mask id="mask10_232_331" style="mask-type:luminance" maskUnits="userSpaceOnUse" x="14" y="18" width="36" height="20">
<path d="M14.9886 18.447H49.4304V37.6901H14.9886V18.447Z" fill="white"/>
</mask>
<g mask="url(#mask10_232_331)">
<mask id="mask11_232_331" style="mask-type:luminance" maskUnits="userSpaceOnUse" x="11" y="12" width="40" height="30">
<path d="M50.8697 25.1784L16.4615 41.3368L11.483 28.576L45.8912 12.4182L50.8697 25.1784Z" fill="white"/>
</mask>
<g mask="url(#mask11_232_331)">
<mask id="mask12_232_331" style="mask-type:luminance" maskUnits="userSpaceOnUse" x="11" y="12" width="40" height="30">
<path d="M11.4969 28.5955L45.9051 12.4377L50.8836 25.1979L16.4754 41.3563L11.4969 28.5955Z" fill="white"/>
</mask>
<g mask="url(#mask12_232_331)">
<path d="M44.98 26.0685C43.7299 25.3728 42.4307 24.8173 41.0809 24.4025C39.7312 23.9877 38.3578 23.7219 36.96 23.6037C35.5131 23.4875 34.0693 23.5271 32.6293 23.7232C31.1892 23.9187 29.7803 24.2658 28.4025 24.7653C26.9774 25.2847 25.6115 25.9516 24.306 26.7655C23.0004 27.5801 21.7796 28.5258 20.6435 29.6034C19.4744 30.7166 18.4149 31.9446 17.4651 33.286C16.5158 34.6281 15.6943 36.0583 15.001 37.5774C15.4819 35.906 16.1072 34.3021 16.8758 32.7653C17.6444 31.2284 18.542 29.7886 19.5685 28.4459C20.6298 27.0607 21.8033 25.8027 23.0901 24.671C24.377 23.5394 25.7516 22.5561 27.2147 21.7217C28.7214 20.8627 30.2904 20.1739 31.9217 19.656C33.553 19.1373 35.2142 18.799 36.9065 18.6412C38.6468 18.4785 40.3846 18.5045 42.1205 18.7177C43.8564 18.9309 45.5568 19.3273 47.2217 19.9074L47.279 19.9286C47.3737 19.9614 47.4665 19.9997 47.5581 20.0427C47.6496 20.0851 47.7387 20.1329 47.8259 20.1855C47.9131 20.2382 47.9978 20.2949 48.08 20.3564C48.1616 20.4186 48.2407 20.4842 48.3167 20.5546C48.3933 20.6243 48.4656 20.6987 48.5353 20.7766C48.6051 20.8545 48.6705 20.9359 48.7328 21.0213C48.7951 21.106 48.853 21.1942 48.9078 21.2857C48.962 21.3773 49.0118 21.4709 49.0579 21.568C49.1034 21.665 49.1451 21.7641 49.1819 21.8652C49.2192 21.9664 49.2516 22.0689 49.279 22.1741C49.3071 22.2786 49.3301 22.3846 49.3482 22.4918C49.3669 22.5991 49.3799 22.7071 49.3887 22.8158C49.3974 22.9244 49.4011 23.0331 49.3999 23.1424C49.3986 23.251 49.393 23.3597 49.3818 23.4683C49.3712 23.577 49.3556 23.6843 49.3351 23.7909C49.3145 23.8975 49.289 24.0034 49.2591 24.1073C49.2292 24.2111 49.195 24.313 49.1557 24.4134C49.1165 24.5139 49.0729 24.6116 49.0255 24.7073C48.9776 24.8029 48.9253 24.8959 48.8692 24.9854C48.8131 25.0756 48.7527 25.1624 48.6892 25.2457C48.625 25.3298 48.5578 25.4091 48.4868 25.4856C48.4157 25.5621 48.341 25.6339 48.2638 25.7022C48.1859 25.7705 48.1056 25.8341 48.0221 25.8942C47.9393 25.9537 47.8533 26.0084 47.7649 26.0589C47.677 26.1088 47.5867 26.1546 47.4945 26.1949C47.4024 26.2359 47.3083 26.2714 47.213 26.3015C47.1171 26.3323 47.0205 26.3575 46.9234 26.3774C46.8256 26.3979 46.7272 26.4122 46.6281 26.4218C46.5291 26.4313 46.4294 26.4354 46.3304 26.4341C46.2307 26.4327 46.1317 26.4266 46.0327 26.4143C45.9343 26.4026 45.8358 26.3849 45.7387 26.363C45.6415 26.3405 45.5456 26.3124 45.4509 26.2796C45.289 26.2229 45.132 26.1525 44.98 26.0685Z" fill="#FDFAF1"/>
</g>
</g>
</g>
<path fill-rule="evenodd" clip-rule="evenodd" d="M41.907 63.8467C39.8715 53.4899 33.3365 56.5567 26.9203 54.3358C16.4861 50.7237 22.4451 39.9753 27.669 33.8586C27.788 34.4689 27.8478 34.775 27.8478 34.775C29.0325 32.5384 29.6242 31.4211 29.6242 31.4211C27.4479 32.315 26.3591 32.7639 26.3591 32.7639C26.7335 32.9976 26.9203 33.1145 26.9203 33.1145C21.3438 38.1719 18.3603 43.0763 17.9704 47.8242C17.5114 53.4195 20.7042 56.3831 24.4195 57.5811C29.9674 59.3687 37.7264 56.9777 41.907 63.8487V63.8467Z" fill="#FDFAF1"/>
<mask id="mask13_232_331" style="mask-type:luminance" maskUnits="userSpaceOnUse" x="16" y="50" width="27" height="18">
<path d="M16.0086 50.1108H42.7183V67.1364H16.0086V50.1108Z" fill="white"/>
</mask>
<g mask="url(#mask13_232_331)">
<path fill-rule="evenodd" clip-rule="evenodd" d="M42.7134 67.1848C37.9647 54.7568 24.4112 63.9136 18.2517 54.4233C17.721 53.5602 17.2912 52.7006 16.9623 51.8416C17.4432 52.1539 17.6849 52.3104 17.6849 52.3104C16.8371 50.9287 16.4142 50.2378 16.4142 50.2378C16.1445 51.692 16.01 52.419 16.01 52.419C16.3077 52.0924 16.4566 51.9304 16.4566 51.9304C17.9745 57.7738 20.7325 61.1946 24.7263 62.1916C29.9814 63.5029 39.2241 61.2698 42.7152 67.1869L42.7134 67.1848Z" fill="#FDFAF1"/>
</g>
<mask id="mask14_232_331" style="mask-type:luminance" maskUnits="userSpaceOnUse" x="30" y="30" width="10" height="28">
<path d="M30.2961 30.8933H39.3849V57.1079H30.2961V30.8933Z" fill="white"/>
</mask>
<g mask="url(#mask14_232_331)">
<path fill-rule="evenodd" clip-rule="evenodd" d="M39.3307 47.882V56.9705C38.9128 56.5974 38.4456 56.2674 37.9224 55.9872C37.7891 55.9168 37.6558 55.8499 37.5194 55.7863V46.0014L36.4574 47.1536V55.3715C35.8663 55.1809 35.2584 55.0421 34.6462 54.9335V47.7925H34.6381V39.6121L32.2095 42.0565V54.5945C31.6035 54.5228 30.9999 54.449 30.3982 54.3595V30.8933L34.6381 35.426V39.6121L36.4556 41.7059H36.4574V41.7093L37.5194 42.9332V46.0001L39.3307 47.882Z" fill="#FDFAF1"/>
</g>
<path fill-rule="evenodd" clip-rule="evenodd" d="M24.2159 47.8823V52.1006C24.7721 52.529 25.3894 52.8796 26.0272 53.1687V46.0003L27.0891 47.1518V53.5896L27.1303 53.6033C27.7157 53.8062 28.3068 53.9627 28.9004 54.0912V47.7893H28.9085V39.6138L27.091 41.7075H27.0891V41.711L26.0272 42.9348V46.0017L24.2159 47.8843V47.8823Z" fill="#FDFAF1"/>
<path d="M111.376 48.1222C111.12 47.6528 110.768 47.2955 110.32 47.0502C109.872 46.8048 109.349 46.6822 108.752 46.6822C108.091 46.6822 107.504 46.8315 106.992 47.1302C106.48 47.4288 106.08 47.8555 105.792 48.4102C105.504 48.9648 105.36 49.6048 105.36 50.3302C105.36 51.0768 105.504 51.7275 105.792 52.2822C106.091 52.8368 106.501 53.2635 107.024 53.5622C107.547 53.8608 108.155 54.0102 108.848 54.0102C109.701 54.0102 110.4 53.7862 110.944 53.3382C111.488 52.8795 111.845 52.2448 112.016 51.4342H108.176V49.7222H114.224V51.6742C114.075 52.4528 113.755 53.1728 113.264 53.8342C112.773 54.4955 112.139 55.0288 111.36 55.4342C110.592 55.8288 109.728 56.0262 108.768 56.0262C107.691 56.0262 106.715 55.7862 105.84 55.3062C104.976 54.8155 104.293 54.1382 103.792 53.2742C103.301 52.4102 103.056 51.4288 103.056 50.3302C103.056 49.2315 103.301 48.2502 103.792 47.3862C104.293 46.5115 104.976 45.8342 105.84 45.3542C106.715 44.8635 107.685 44.6182 108.752 44.6182C110.011 44.6182 111.104 44.9275 112.032 45.5462C112.96 46.1542 113.6 47.0128 113.952 48.1222H111.376ZM118.121 48.4422C118.409 47.9728 118.783 47.6048 119.241 47.3382C119.711 47.0715 120.244 46.9382 120.841 46.9382V49.2902H120.249C119.545 49.2902 119.012 49.4555 118.649 49.7862C118.297 50.1168 118.121 50.6928 118.121 51.5142V55.9302H115.881V47.0662H118.121V48.4422ZM130.59 51.3062C130.59 51.6262 130.569 51.9142 130.526 52.1702H124.046C124.099 52.8102 124.323 53.3115 124.718 53.6742C125.113 54.0368 125.598 54.2182 126.174 54.2182C127.006 54.2182 127.598 53.8608 127.95 53.1462H130.366C130.11 53.9995 129.619 54.7035 128.894 55.2582C128.169 55.8022 127.278 56.0742 126.222 56.0742C125.369 56.0742 124.601 55.8875 123.918 55.5142C123.246 55.1302 122.718 54.5915 122.334 53.8982C121.961 53.2048 121.774 52.4048 121.774 51.4982C121.774 50.5808 121.961 49.7755 122.334 49.0822C122.707 48.3888 123.23 47.8555 123.902 47.4822C124.574 47.1088 125.347 46.9222 126.222 46.9222C127.065 46.9222 127.817 47.1035 128.478 47.4662C129.15 47.8288 129.667 48.3462 130.03 49.0182C130.403 49.6795 130.59 50.4422 130.59 51.3062ZM128.27 50.6662C128.259 50.0902 128.051 49.6315 127.646 49.2902C127.241 48.9382 126.745 48.7622 126.158 48.7622C125.603 48.7622 125.134 48.9328 124.75 49.2742C124.377 49.6048 124.147 50.0688 124.062 50.6662H128.27ZM140.465 51.3062C140.465 51.6262 140.444 51.9142 140.401 52.1702H133.921C133.974 52.8102 134.198 53.3115 134.593 53.6742C134.988 54.0368 135.473 54.2182 136.049 54.2182C136.881 54.2182 137.473 53.8608 137.825 53.1462H140.241C139.985 53.9995 139.494 54.7035 138.769 55.2582C138.044 55.8022 137.153 56.0742 136.097 56.0742C135.244 56.0742 134.476 55.8875 133.793 55.5142C133.121 55.1302 132.593 54.5915 132.209 53.8982C131.836 53.2048 131.649 52.4048 131.649 51.4982C131.649 50.5808 131.836 49.7755 132.209 49.0822C132.582 48.3888 133.105 47.8555 133.777 47.4822C134.449 47.1088 135.222 46.9222 136.097 46.9222C136.94 46.9222 137.692 47.1035 138.353 47.4662C139.025 47.8288 139.542 48.3462 139.905 49.0182C140.278 49.6795 140.465 50.4422 140.465 51.3062ZM138.145 50.6662C138.134 50.0902 137.926 49.6315 137.521 49.2902C137.116 48.9382 136.62 48.7622 136.033 48.7622C135.478 48.7622 135.009 48.9328 134.625 49.2742C134.252 49.6048 134.022 50.0688 133.937 50.6662H138.145ZM147.012 46.9382C148.068 46.9382 148.921 47.2742 149.572 47.9462C150.223 48.6075 150.548 49.5355 150.548 50.7302V55.9302H148.308V51.0342C148.308 50.3302 148.132 49.7915 147.78 49.4182C147.428 49.0342 146.948 48.8422 146.34 48.8422C145.721 48.8422 145.231 49.0342 144.868 49.4182C144.516 49.7915 144.34 50.3302 144.34 51.0342V55.9302H142.1V47.0662H144.34V48.1702C144.639 47.7862 145.017 47.4875 145.476 47.2742C145.945 47.0502 146.457 46.9382 147.012 46.9382ZM154.262 54.7462H158.166V55.9302H152.806V44.7782H154.262V54.7462ZM160.464 45.7382C160.187 45.7382 159.952 45.6422 159.76 45.4502C159.568 45.2582 159.472 45.0235 159.472 44.7462C159.472 44.4688 159.568 44.2342 159.76 44.0422C159.952 43.8502 160.187 43.7542 160.464 43.7542C160.731 43.7542 160.955 43.8502 161.136 44.0422C161.328 44.2342 161.424 44.4688 161.424 44.7462C161.424 45.0235 161.328 45.2582 161.136 45.4502C160.955 45.6422 160.731 45.7382 160.464 45.7382ZM161.168 47.1622V55.9302H159.712V47.1622H161.168ZM167.218 48.3622H165.378V55.9302H163.922V48.3622H162.786V47.1622H163.922V46.5382C163.922 45.5568 164.173 44.8422 164.674 44.3942C165.186 43.9355 166.002 43.7062 167.122 43.7062V44.9222C166.482 44.9222 166.029 45.0502 165.762 45.3062C165.506 45.5515 165.378 45.9622 165.378 46.5382V47.1622H167.218V48.3622ZM176.468 47.1622L171.188 60.0582H169.684L171.412 55.8342L167.876 47.1622H169.492L172.244 54.2662L174.964 47.1622H176.468Z" fill="#FDFAF1"/>
</svg>
