<svg width="130" height="45" viewBox="0 0 130 45" fill="none" xmlns="http://www.w3.org/2000/svg">
<mask id="mask0_204_1777" style="mask-type:luminance" maskUnits="userSpaceOnUse" x="2" y="0" width="42" height="24">
<path d="M2.56689 0H43.7513V23.8171H2.56689V0Z" fill="white"/>
</mask>
<g mask="url(#mask0_204_1777)">
<path d="M21.6125 0C27.0992 0 32.0669 2.44105 35.6636 6.38661C36.2064 6.98138 36.7161 7.60879 37.1927 8.26809C37.6693 8.92776 38.1095 9.6153 38.5136 10.3307C38.9173 11.0465 39.2826 11.785 39.6085 12.547C39.9347 13.309 40.2195 14.0889 40.4632 14.8868H43.7961L41.0922 19.3465L38.3882 23.8058L35.6843 19.3465L32.9804 14.8868H35.7475C35.3611 13.9389 34.8995 13.0376 34.3627 12.1825C33.826 11.3274 33.2227 10.5328 32.5532 9.79865C29.753 6.72653 25.8846 4.82599 21.6125 4.82599C17.34 4.82599 13.4716 6.72653 10.6717 9.79865C9.93372 10.6079 9.27662 11.4894 8.70108 12.4443C8.12553 13.3988 7.64256 14.4068 7.25251 15.4684H2.59232C2.82895 14.6144 3.11272 13.7791 3.44294 12.9632C3.77316 12.1473 4.1475 11.3567 4.56629 10.5914C4.98508 9.82578 5.44499 9.09131 5.946 8.388C6.44701 7.68469 6.98546 7.01732 7.56134 6.38661C11.1577 2.44105 16.1257 0 21.6125 0Z" fill="#265741"/>
</g>
<mask id="mask1_204_1777" style="mask-type:luminance" maskUnits="userSpaceOnUse" x="0" y="21" width="42" height="24">
<path d="M0 21.1887H41.2416V45H0V21.1887Z" fill="white"/>
</mask>
<g mask="url(#mask1_204_1777)">
<path d="M22.1838 45.0047C16.6974 45.0047 11.7291 42.5637 8.13272 38.6181C7.58993 38.023 7.08022 37.3959 6.60361 36.7363C6.12699 36.0766 5.68681 35.3891 5.28272 34.6736C4.87863 33.9582 4.51365 33.2194 4.18744 32.4574C3.86157 31.6958 3.57647 30.9155 3.33281 30.1175H0.000183105L2.70412 25.6579L5.40806 21.1986L8.112 25.6579L10.8156 30.1175H8.04883C8.4352 31.0654 8.89677 31.9668 9.43355 32.8219C9.97033 33.677 10.5736 34.4716 11.2427 35.2057C14.0429 38.2778 17.9117 40.1784 22.1838 40.1784C26.456 40.1784 30.3244 38.2778 33.1249 35.2057C33.8626 34.3964 34.5193 33.5149 35.0952 32.5601C35.6708 31.6056 36.1537 30.5975 36.5438 29.536H41.204C40.967 30.39 40.6836 31.2253 40.3534 32.0412C40.0231 32.8571 39.6485 33.6477 39.2297 34.4133C38.8109 35.1786 38.351 35.9131 37.85 36.6164C37.3489 37.32 36.8105 37.987 36.235 38.6177C32.6386 42.5637 27.6703 45.0047 22.1838 45.0047Z" fill="#265741"/>
</g>
<mask id="mask2_204_1777" style="mask-type:luminance" maskUnits="userSpaceOnUse" x="23" y="25" width="22" height="5">
<path d="M23.3511 25.0317H45V29.6134H23.3511V25.0317Z" fill="white"/>
</mask>
<g mask="url(#mask2_204_1777)">
<mask id="mask3_204_1777" style="mask-type:luminance" maskUnits="userSpaceOnUse" x="23" y="25" width="22" height="5">
<path d="M25.4394 25.0317H42.899C44.0524 25.0317 44.9873 26.0573 44.9873 27.3224C44.9873 28.5878 44.0524 29.6134 42.899 29.6134H25.4394C24.286 29.6134 23.3511 28.5878 23.3511 27.3224C23.3511 26.0573 24.286 25.0317 25.4394 25.0317Z" fill="white"/>
</mask>
<g mask="url(#mask3_204_1777)">
<path d="M23.3511 25.0317H44.9836V29.6134H23.3511V25.0317Z" fill="#337456"/>
</g>
</g>
<mask id="mask4_204_1777" style="mask-type:luminance" maskUnits="userSpaceOnUse" x="26" y="12" width="7" height="13">
<path d="M26.3535 12.3985H32.5996V24.6056H26.3535V12.3985Z" fill="white"/>
</mask>
<g mask="url(#mask4_204_1777)">
<path d="M31.091 12.3985C31.232 13.1737 30.8787 13.9735 30.37 14.5316C29.861 15.0911 29.2099 15.4618 28.5889 15.8604C27.9669 16.259 27.3456 16.7137 26.9558 17.3778C26.6159 17.9557 26.4769 18.648 26.4057 19.3304C26.3168 20.1595 26.3292 21.0285 26.5691 21.8085C26.7436 21.338 26.9712 20.8881 27.2303 20.4679C27.739 19.6403 28.3656 18.9098 28.989 18.1834C29.7176 17.3353 30.4456 16.4882 31.1742 15.6397C30.4198 17.19 29.251 18.4408 28.2634 19.8243C27.2757 21.209 26.4334 22.8616 26.5257 24.617C26.5992 23.7186 27.2637 23.0054 27.9846 22.5716C28.7056 22.1378 29.5134 21.895 30.2233 21.4418C31.5666 20.5834 32.4697 18.948 32.5395 17.2439C32.6107 15.5201 31.8941 13.8807 31.091 12.3985Z" fill="#40916C"/>
</g>
<mask id="mask5_204_1777" style="mask-type:luminance" maskUnits="userSpaceOnUse" x="21" y="13" width="6" height="10">
<path d="M21.2431 13.1156H26.0113V22.409H21.2431V13.1156Z" fill="white"/>
</mask>
<g mask="url(#mask5_204_1777)">
<mask id="mask6_204_1777" style="mask-type:luminance" maskUnits="userSpaceOnUse" x="21" y="13" width="5" height="10">
<path d="M22.3962 13.1419C22.2896 13.7294 22.5573 14.3351 22.9427 14.7583C23.3284 15.1811 23.8217 15.4627 24.2926 15.7649C24.7635 16.0674 25.2335 16.411 25.5303 16.9144C25.788 17.3519 25.8926 17.8763 25.9467 18.394C26.0126 19.0207 26.0035 19.68 25.8214 20.2711C25.689 19.9154 25.5169 19.574 25.3204 19.2561C24.9347 18.6294 24.4604 18.0761 23.9881 17.5264C23.436 16.884 22.8848 16.2416 22.3327 15.5991C22.9039 16.7744 23.7893 17.72 24.5383 18.7695C25.287 19.8179 25.9247 21.0697 25.8548 22.3994C25.799 21.7191 25.296 21.1794 24.7502 20.8501C24.2047 20.5212 23.5927 20.3382 23.054 19.9946C22.0362 19.3412 21.3517 18.1029 21.2986 16.8121C21.2451 15.5067 21.7885 14.2658 22.3962 13.1419Z" fill="white"/>
</mask>
<g mask="url(#mask6_204_1777)">
<path d="M26.0126 13.1419V22.3994H21.2451V13.1419H26.0126Z" fill="url(#paint0_linear_204_1777)"/>
</g>
</g>
<mask id="mask7_204_1777" style="mask-type:luminance" maskUnits="userSpaceOnUse" x="15" y="31" width="20" height="9">
<path d="M15.3159 31.233H34.6532V39.5876H15.3159V31.233Z" fill="white"/>
</mask>
<g mask="url(#mask7_204_1777)">
<mask id="mask8_204_1777" style="mask-type:luminance" maskUnits="userSpaceOnUse" x="14" y="29" width="22" height="14">
<path d="M35.8842 36.2895L16.5178 42.1265L14.7193 34.9445L34.0857 29.1075L35.8842 36.2895Z" fill="white"/>
</mask>
<g mask="url(#mask8_204_1777)">
<mask id="mask9_204_1777" style="mask-type:luminance" maskUnits="userSpaceOnUse" x="14" y="29" width="22" height="14">
<path d="M35.8842 36.2895L16.5178 42.1265L14.7193 34.9445L34.0857 29.1075L35.8842 36.2895Z" fill="white"/>
</mask>
<g mask="url(#mask9_204_1777)">
<path d="M17.9156 34.9541C18.5339 35.4238 19.188 35.8231 19.8778 36.1517C20.5677 36.4802 21.2803 36.7318 22.0153 36.9059C22.777 37.0834 23.547 37.178 24.3258 37.1894C25.1042 37.2008 25.8763 37.1285 26.642 36.9734C27.4342 36.8113 28.2046 36.566 28.9526 36.2375C29.7009 35.9093 30.4128 35.5041 31.0883 35.0223C31.7842 34.5236 32.4289 33.9559 33.0229 33.3186C33.6171 32.681 34.1489 31.9865 34.6185 31.2344C34.2515 32.0844 33.8127 32.887 33.3019 33.6424C32.7909 34.3982 32.218 35.0916 31.583 35.7237C30.9269 36.375 30.2193 36.9499 29.4599 37.4486C28.7006 37.947 27.9044 38.3599 27.0712 38.6866C26.2129 39.0225 25.3328 39.263 24.4314 39.4082C23.53 39.5531 22.6242 39.6 21.7141 39.5487C20.7779 39.4959 19.8558 39.343 18.947 39.091C18.0382 38.8388 17.1609 38.4919 16.3143 38.05L16.2852 38.0342C16.2371 38.0093 16.1903 37.9814 16.1445 37.9514C16.0987 37.9213 16.0542 37.889 16.0115 37.8538C15.9687 37.819 15.9276 37.782 15.8881 37.7427C15.8483 37.7035 15.8109 37.6621 15.7751 37.6188C15.7391 37.5752 15.7053 37.53 15.6735 37.4831C15.6418 37.4362 15.6124 37.3874 15.585 37.3372C15.5576 37.2869 15.5325 37.2352 15.5098 37.1824C15.4867 37.1296 15.4667 37.0757 15.4486 37.0204C15.4306 36.9653 15.4152 36.9092 15.4021 36.8528C15.3891 36.7959 15.3787 36.7384 15.3711 36.6804C15.3634 36.6229 15.358 36.5646 15.3554 36.5063C15.353 36.4476 15.353 36.3893 15.3557 36.3306C15.3584 36.2723 15.3634 36.214 15.3714 36.1561C15.3791 36.0985 15.3894 36.0409 15.4025 35.9841C15.4155 35.9276 15.4309 35.8715 15.4489 35.8165C15.467 35.7615 15.4874 35.7072 15.5101 35.6544C15.5332 35.6016 15.5582 35.5499 15.5856 35.4997C15.613 35.4498 15.6428 35.4011 15.6745 35.3541C15.7063 35.3072 15.7401 35.2621 15.7758 35.2184C15.8119 35.1752 15.8493 35.1341 15.8891 35.0945C15.9286 35.0553 15.9697 35.0182 16.0128 34.9834C16.0556 34.9486 16.0997 34.9163 16.1455 34.8862C16.1913 34.8562 16.2384 34.8287 16.2865 34.8034C16.335 34.7784 16.3841 34.7561 16.4343 34.7366C16.4844 34.7168 16.5355 34.6999 16.5873 34.6856C16.6391 34.6713 16.6913 34.66 16.7441 34.6515C16.7969 34.6431 16.8497 34.6372 16.9032 34.6343C16.9563 34.6314 17.0098 34.6317 17.0629 34.6343C17.1161 34.6372 17.1692 34.6431 17.222 34.6519C17.2748 34.6603 17.327 34.6717 17.3788 34.686C17.4306 34.7003 17.4814 34.7172 17.5319 34.737C17.582 34.7568 17.6311 34.7792 17.6793 34.8041C17.7618 34.8474 17.8404 34.8972 17.9156 34.9541Z" fill="#337456"/>
</g>
</g>
</g>
<mask id="mask10_204_1777" style="mask-type:luminance" maskUnits="userSpaceOnUse" x="8" y="5" width="19" height="11">
<path d="M8.04291 5.60602H26.5246V15.932H8.04291V5.60602Z" fill="white"/>
</mask>
<g mask="url(#mask10_204_1777)">
<mask id="mask11_204_1777" style="mask-type:luminance" maskUnits="userSpaceOnUse" x="6" y="2" width="22" height="16">
<path d="M27.297 9.21799L8.83335 17.8887L6.16183 11.0412L24.6255 2.37082L27.297 9.21799Z" fill="white"/>
</mask>
<g mask="url(#mask11_204_1777)">
<mask id="mask12_204_1777" style="mask-type:luminance" maskUnits="userSpaceOnUse" x="6" y="2" width="22" height="16">
<path d="M6.16928 11.0517L24.6329 2.38138L27.3044 9.22855L8.8408 17.8993L6.16928 11.0517Z" fill="white"/>
</mask>
<g mask="url(#mask12_204_1777)">
<path d="M24.1366 9.69566C23.4658 9.32237 22.7686 9.02426 22.0443 8.80168C21.32 8.5791 20.583 8.43646 19.833 8.37302C19.0566 8.31068 18.2818 8.33195 17.5091 8.43719C16.7363 8.54206 15.9803 8.72834 15.241 8.99639C14.4763 9.27507 13.7433 9.63296 13.0427 10.0697C12.3422 10.5068 11.6871 11.0143 11.0775 11.5925C10.4501 12.1899 9.88158 12.8488 9.37187 13.5686C8.8625 14.2888 8.42165 15.0563 8.04965 15.8714C8.30768 14.9745 8.64325 14.1139 9.05569 13.2892C9.46813 12.4645 9.94976 11.6919 10.5006 10.9714C11.0701 10.2281 11.6998 9.55302 12.3903 8.94579C13.0808 8.33855 13.8185 7.81088 14.6036 7.36316C15.4121 6.90223 16.254 6.53261 17.1294 6.25466C18.0048 5.97634 18.8962 5.79483 19.8043 5.71013C20.7381 5.62285 21.6706 5.63679 22.6021 5.7512C23.5336 5.8656 24.4461 6.07828 25.3395 6.3896L25.3702 6.40097C25.421 6.41857 25.4708 6.4391 25.52 6.4622C25.5691 6.48494 25.6169 6.51061 25.6637 6.53884C25.7105 6.56708 25.7559 6.59751 25.8 6.63051C25.8438 6.66388 25.8863 6.69909 25.9271 6.73685C25.9682 6.77426 26.0069 6.81423 26.0444 6.85603C26.0818 6.89783 26.1169 6.94147 26.1503 6.9873C26.1837 7.03277 26.2148 7.08007 26.2442 7.12921C26.2733 7.17835 26.3001 7.22858 26.3248 7.28065C26.3492 7.33272 26.3716 7.38589 26.3913 7.44016C26.4114 7.49443 26.4287 7.54944 26.4434 7.60591C26.4585 7.66201 26.4709 7.71885 26.4805 7.77642C26.4906 7.83399 26.4976 7.89192 26.5023 7.95023C26.507 8.00853 26.509 8.06683 26.5083 8.1255C26.5076 8.18381 26.5046 8.24211 26.4986 8.30041C26.4929 8.35872 26.4846 8.41629 26.4735 8.47349C26.4625 8.53069 26.4488 8.58753 26.4328 8.64327C26.4167 8.699 26.3983 8.75364 26.3773 8.80754C26.3562 8.86145 26.3328 8.91388 26.3074 8.96522C26.2817 9.01656 26.2536 9.06643 26.2235 9.11446C26.1934 9.16287 26.161 9.20943 26.1269 9.25417C26.0925 9.29927 26.0564 9.34181 26.0183 9.38288C25.9802 9.42395 25.9401 9.46245 25.8986 9.49912C25.8569 9.53579 25.8138 9.56989 25.769 9.60216C25.7245 9.63406 25.6784 9.66339 25.6309 9.69053C25.5838 9.7173 25.5353 9.74187 25.4859 9.7635C25.4364 9.7855 25.3859 9.80457 25.3348 9.8207C25.2833 9.83721 25.2315 9.85077 25.1794 9.86141C25.1269 9.87241 25.0741 9.88011 25.021 9.88524C24.9678 9.89038 24.9143 9.89258 24.8612 9.89184C24.8077 9.89111 24.7546 9.88781 24.7014 9.88121C24.6486 9.87497 24.5958 9.86544 24.5437 9.85371C24.4915 9.84161 24.4401 9.82657 24.3893 9.80897C24.3024 9.77854 24.2181 9.74077 24.1366 9.69566Z" fill="#337456"/>
</g>
</g>
</g>
<path fill-rule="evenodd" clip-rule="evenodd" d="M22.4875 29.9676C21.3953 24.4101 17.8885 26.0558 14.4456 24.8641C8.84651 22.9257 12.0441 17.1581 14.8473 13.8759C14.9111 14.2033 14.9432 14.3676 14.9432 14.3676C15.5789 13.1674 15.8965 12.5679 15.8965 12.5679C14.7287 13.0475 14.1444 13.2884 14.1444 13.2884C14.3453 13.4139 14.4456 13.4766 14.4456 13.4766C11.4532 16.1904 9.85221 18.8221 9.64298 21.3699C9.39665 24.3723 11.1099 25.9627 13.1036 26.6055C16.0806 27.5647 20.2442 26.2817 22.4875 29.9687V29.9676Z" fill="#79B298"/>
<mask id="mask13_204_1777" style="mask-type:luminance" maskUnits="userSpaceOnUse" x="8" y="22" width="15" height="10">
<path d="M8.59039 22.5968H22.9229V31.7328H8.59039V22.5968Z" fill="white"/>
</mask>
<g mask="url(#mask13_204_1777)">
<path fill-rule="evenodd" clip-rule="evenodd" d="M22.9203 31.7589C20.3721 25.0899 13.0992 30.0036 9.79397 24.911C9.5092 24.4479 9.27858 23.9866 9.10211 23.5257C9.36013 23.6932 9.48981 23.7772 9.48981 23.7772C9.03492 23.0358 8.80798 22.665 8.80798 22.665C8.66326 23.4454 8.59106 23.8355 8.59106 23.8355C8.75083 23.6602 8.83071 23.5733 8.83071 23.5733C9.64523 26.7089 11.1252 28.5445 13.2683 29.0795C16.0882 29.7832 21.0479 28.5849 22.9213 31.76L22.9203 31.7589Z" fill="#337456"/>
</g>
<mask id="mask14_204_1777" style="mask-type:luminance" maskUnits="userSpaceOnUse" x="16" y="12" width="6" height="15">
<path d="M16.257 12.2848H21.1341V26.3517H16.257V12.2848Z" fill="white"/>
</mask>
<g mask="url(#mask14_204_1777)">
<path fill-rule="evenodd" clip-rule="evenodd" d="M21.1051 21.401V26.278C20.8808 26.0778 20.6301 25.9007 20.3494 25.7503C20.2778 25.7126 20.2063 25.6766 20.1331 25.6425V20.3919L19.5632 21.0101V25.4199C19.2461 25.3176 18.9198 25.2432 18.5913 25.1849V21.353H18.5869V16.9634L17.2838 18.275V25.003C16.9586 24.9645 16.6347 24.9249 16.3118 24.8769V12.2848L18.5869 14.717V16.9634L19.5622 18.0869H19.5632V18.0887L20.1331 18.7455V20.3912L21.1051 21.401Z" fill="#337456"/>
</g>
<path fill-rule="evenodd" clip-rule="evenodd" d="M12.9943 21.401V23.6645C13.2928 23.8945 13.624 24.0826 13.9663 24.2377V20.3911L14.5361 21.009V24.4636L14.5582 24.4709C14.8724 24.5798 15.1896 24.6638 15.5081 24.7327V21.3511H15.5124V16.9641L14.5371 18.0876H14.5361V18.0894L13.9663 18.7462V20.3919L12.9943 21.4021V21.401Z" fill="#337456"/>
<path d="M63.88 20.692C63.624 20.2227 63.272 19.8653 62.824 19.62C62.376 19.3747 61.8533 19.252 61.256 19.252C60.5947 19.252 60.008 19.4013 59.496 19.7C58.984 19.9987 58.584 20.4253 58.296 20.98C58.008 21.5347 57.864 22.1747 57.864 22.9C57.864 23.6467 58.008 24.2973 58.296 24.852C58.5947 25.4067 59.0053 25.8333 59.528 26.132C60.0507 26.4307 60.6587 26.58 61.352 26.58C62.2053 26.58 62.904 26.356 63.448 25.908C63.992 25.4493 64.3493 24.8147 64.52 24.004H60.68V22.292H66.728V24.244C66.5787 25.0227 66.2587 25.7427 65.768 26.404C65.2773 27.0653 64.6427 27.5987 63.864 28.004C63.096 28.3987 62.232 28.596 61.272 28.596C60.1947 28.596 59.2187 28.356 58.344 27.876C57.48 27.3853 56.7973 26.708 56.296 25.844C55.8053 24.98 55.56 23.9987 55.56 22.9C55.56 21.8013 55.8053 20.82 56.296 19.956C56.7973 19.0813 57.48 18.404 58.344 17.924C59.2187 17.4333 60.1893 17.188 61.256 17.188C62.5147 17.188 63.608 17.4973 64.536 18.116C65.464 18.724 66.104 19.5827 66.456 20.692H63.88ZM70.6253 21.012C70.9133 20.5427 71.2866 20.1747 71.7453 19.908C72.2146 19.6413 72.7479 19.508 73.3453 19.508V21.86H72.7533C72.0493 21.86 71.5159 22.0253 71.1533 22.356C70.8013 22.6867 70.6253 23.2627 70.6253 24.084V28.5H68.3853V19.636H70.6253V21.012ZM83.094 23.876C83.094 24.196 83.0727 24.484 83.03 24.74H76.55C76.6033 25.38 76.8273 25.8813 77.222 26.244C77.6167 26.6067 78.102 26.788 78.678 26.788C79.51 26.788 80.102 26.4307 80.454 25.716H82.87C82.614 26.5693 82.1233 27.2733 81.398 27.828C80.6727 28.372 79.782 28.644 78.726 28.644C77.8727 28.644 77.1047 28.4573 76.422 28.084C75.75 27.7 75.222 27.1613 74.838 26.468C74.4647 25.7747 74.278 24.9747 74.278 24.068C74.278 23.1507 74.4647 22.3453 74.838 21.652C75.2113 20.9587 75.734 20.4253 76.406 20.052C77.078 19.6787 77.8513 19.492 78.726 19.492C79.5687 19.492 80.3207 19.6733 80.982 20.036C81.654 20.3987 82.1713 20.916 82.534 21.588C82.9073 22.2493 83.094 23.012 83.094 23.876ZM80.774 23.236C80.7633 22.66 80.5553 22.2013 80.15 21.86C79.7447 21.508 79.2487 21.332 78.662 21.332C78.1073 21.332 77.638 21.5027 77.254 21.844C76.8807 22.1747 76.6513 22.6387 76.566 23.236H80.774ZM92.969 23.876C92.969 24.196 92.9477 24.484 92.905 24.74H86.425C86.4783 25.38 86.7023 25.8813 87.097 26.244C87.4917 26.6067 87.977 26.788 88.553 26.788C89.385 26.788 89.977 26.4307 90.329 25.716H92.745C92.489 26.5693 91.9983 27.2733 91.273 27.828C90.5477 28.372 89.657 28.644 88.601 28.644C87.7477 28.644 86.9797 28.4573 86.297 28.084C85.625 27.7 85.097 27.1613 84.713 26.468C84.3397 25.7747 84.153 24.9747 84.153 24.068C84.153 23.1507 84.3397 22.3453 84.713 21.652C85.0863 20.9587 85.609 20.4253 86.281 20.052C86.953 19.6787 87.7263 19.492 88.601 19.492C89.4437 19.492 90.1957 19.6733 90.857 20.036C91.529 20.3987 92.0463 20.916 92.409 21.588C92.7823 22.2493 92.969 23.012 92.969 23.876ZM90.649 23.236C90.6383 22.66 90.4303 22.2013 90.025 21.86C89.6197 21.508 89.1237 21.332 88.537 21.332C87.9823 21.332 87.513 21.5027 87.129 21.844C86.7557 22.1747 86.5263 22.6387 86.441 23.236H90.649ZM99.516 19.508C100.572 19.508 101.425 19.844 102.076 20.516C102.727 21.1773 103.052 22.1053 103.052 23.3V28.5H100.812V23.604C100.812 22.9 100.636 22.3613 100.284 21.988C99.932 21.604 99.452 21.412 98.844 21.412C98.2253 21.412 97.7347 21.604 97.372 21.988C97.02 22.3613 96.844 22.9 96.844 23.604V28.5H94.604V19.636H96.844V20.74C97.1427 20.356 97.5213 20.0573 97.98 19.844C98.4493 19.62 98.9613 19.508 99.516 19.508Z" fill="#337456"/>
<path d="M106.766 27.316H110.67V28.5H105.31V17.348H106.766V27.316ZM112.968 18.308C112.691 18.308 112.456 18.212 112.264 18.02C112.072 17.828 111.976 17.5933 111.976 17.316C111.976 17.0387 112.072 16.804 112.264 16.612C112.456 16.42 112.691 16.324 112.968 16.324C113.235 16.324 113.459 16.42 113.64 16.612C113.832 16.804 113.928 17.0387 113.928 17.316C113.928 17.5933 113.832 17.828 113.64 18.02C113.459 18.212 113.235 18.308 112.968 18.308ZM113.672 19.732V28.5H112.216V19.732H113.672ZM119.722 20.932H117.882V28.5H116.426V20.932H115.29V19.732H116.426V19.108C116.426 18.1267 116.677 17.412 117.178 16.964C117.69 16.5053 118.506 16.276 119.626 16.276V17.492C118.986 17.492 118.533 17.62 118.266 17.876C118.01 18.1213 117.882 18.532 117.882 19.108V19.732H119.722V20.932ZM128.972 19.732L123.692 32.628H122.188L123.916 28.404L120.38 19.732H121.996L124.748 26.836L127.468 19.732H128.972Z" fill="#265741"/>
<defs>
<linearGradient id="paint0_linear_204_1777" x1="23.6395" y1="13.142" x2="23.6395" y2="22.3995" gradientUnits="userSpaceOnUse">
<stop stop-color="#275942"/>
<stop offset="0.5" stop-color="#275943"/>
<stop offset="1" stop-color="#275A43"/>
</linearGradient>
</defs>
</svg>
